<svg width="40" height="40" viewBox="0 0 40 40" fill="none" xmlns="http://www.w3.org/2000/svg">
<path id="Vector" d="M23.5516 0C23.2632 0 22.9949 0.0616662 22.7466 0.144999C23.2732 0.494996 23.5632 0.96166 23.7066 1.48832C23.7182 1.55999 23.7382 1.61165 23.7482 1.68332C23.7606 1.74484 23.7678 1.80727 23.7699 1.86999C23.8099 2.77831 23.5316 2.89331 23.3366 3.42998C23.0366 4.12164 23.1199 4.86496 23.4799 5.46329C23.5129 5.54353 23.5542 5.62006 23.6032 5.69163C23.2116 3.07831 25.3915 2.68665 25.7932 1.86999C25.8249 1.15666 25.2365 0.681662 24.7715 0.351664C24.4061 0.122048 23.9831 0.000692898 23.5516 0.00166666V0ZM26.8365 0.588329C26.7965 0.826661 26.8265 0.764994 26.8165 0.888327C26.8065 0.97166 26.8065 1.07499 26.7965 1.15666C26.7749 1.23999 26.7549 1.32332 26.7232 1.40499C26.7032 1.48832 26.6732 1.57166 26.6399 1.65332L26.5282 1.88999C26.4949 1.93165 26.4765 1.97332 26.4449 2.01499L26.3832 2.10665C26.334 2.17738 26.2823 2.24631 26.2282 2.31332C26.1665 2.37665 26.1149 2.44832 26.0415 2.49998V2.50998C25.9799 2.56165 25.9182 2.62331 25.8449 2.67665C25.6282 2.84165 25.3815 2.96498 25.1532 3.11998C25.0815 3.16998 25.0082 3.21331 24.9465 3.27498C24.8764 3.32429 24.8106 3.37949 24.7499 3.43998C24.6782 3.50164 24.6265 3.56331 24.5649 3.63664C24.5132 3.69831 24.4515 3.76997 24.4099 3.84331C24.358 3.91309 24.3096 3.9854 24.2649 4.05997C24.2232 4.1433 24.1932 4.21497 24.1516 4.29664C24.1199 4.37997 24.0899 4.45163 24.0682 4.53497C24.0409 4.62009 24.017 4.70627 23.9966 4.7933C23.9866 4.83497 23.9866 4.88663 23.9766 4.92663C23.9649 4.9683 23.9649 5.00996 23.9549 5.05163C23.9549 5.13496 23.9449 5.22663 23.9449 5.30996C23.9449 5.37163 23.9449 5.43329 23.9549 5.49496C23.9549 5.57829 23.9649 5.66163 23.9866 5.75329C23.9966 5.83662 24.0166 5.91996 24.0366 6.00329C24.0699 6.08496 24.0899 6.16662 24.1199 6.24995C24.1416 6.29995 24.1716 6.35329 24.1932 6.39495L21.8166 5.47496C21.4149 5.36163 21.0216 5.2583 20.6182 5.16496L19.9682 5.00996C19.3483 4.88663 18.7183 4.7933 18.0883 4.73163C18.0666 4.73163 18.0566 4.72163 18.0366 4.72163C16.972 4.61499 15.9002 4.60105 14.8333 4.67997C14.2033 4.72163 13.5733 4.8033 12.9433 4.90663C12.4751 4.9873 12.0099 5.08402 11.5483 5.19663L11.0833 5.31996C10.93 5.38163 10.7833 5.45329 10.64 5.51663L10.2983 5.67163C10.2783 5.68163 10.2583 5.68163 10.2483 5.69163C10.1433 5.74329 10.0517 5.78496 9.95832 5.83662C9.82413 5.89582 9.69287 5.96145 9.56499 6.03329C9.49333 6.06329 9.42166 6.10496 9.35833 6.13662C9.32873 6.15499 9.29813 6.17168 9.26666 6.18662C9.17333 6.23995 9.08 6.29162 8.99666 6.34329C8.91161 6.3903 8.82926 6.44205 8.75 6.49829C8.67667 6.54829 8.605 6.58995 8.54333 6.64162C8.53333 6.65329 8.52167 6.65329 8.51167 6.66329C8.45 6.70495 8.37833 6.75662 8.315 6.80828L8.295 6.82828L8.14 6.95162C8.12 6.96328 8.09834 6.98328 8.07834 6.99328C8.02667 7.03495 7.975 7.08662 7.92334 7.12662C7.91334 7.14828 7.89167 7.15995 7.88167 7.16828C7.82 7.23161 7.75834 7.28328 7.69667 7.34495C7.68501 7.34495 7.68501 7.35495 7.67501 7.36495C7.61077 7.42109 7.54905 7.48003 7.49001 7.54161C7.47834 7.55161 7.47834 7.56161 7.46834 7.56161C7.41409 7.61471 7.36237 7.67033 7.31334 7.72828C7.29334 7.74828 7.26334 7.76828 7.24168 7.78828C7.18633 7.85376 7.12735 7.91608 7.06501 7.97494C7.05501 7.99494 7.03501 8.00661 7.02501 8.02494C6.94168 8.10827 6.87001 8.19161 6.78668 8.27494L6.75668 8.30494C6.59001 8.48161 6.41502 8.6566 6.22835 8.8116C6.04335 8.97827 5.84669 9.1316 5.65002 9.2666C5.25515 9.54865 4.82899 9.78411 4.38003 9.96826C4.16337 10.0616 3.93503 10.1449 3.70837 10.2166C3.27504 10.3099 2.83004 10.4849 2.44838 10.5166C2.36505 10.5166 2.27338 10.5366 2.19005 10.5466L1.93171 10.6083L1.68338 10.7016C1.60005 10.7333 1.51838 10.7749 1.43672 10.8149C1.36339 10.8666 1.28172 10.9083 1.20839 10.9599C1.13485 11.0131 1.06574 11.0722 1.00172 11.1366C0.930055 11.1866 0.856723 11.2599 0.795057 11.3216C0.73339 11.3933 0.671724 11.4549 0.620058 11.5283C0.568392 11.6116 0.506725 11.6832 0.465059 11.7666C0.410772 11.8417 0.362298 11.9208 0.32006 12.0032C0.278394 12.0966 0.236727 12.1799 0.206727 12.2716C0.175061 12.3549 0.145061 12.4482 0.113395 12.5399C0.093395 12.6232 0.0717285 12.7066 0.0633952 12.7899C0.0633952 12.7982 0.0517286 12.8099 0.0517286 12.8199C0.0317288 12.9132 0.0317288 13.0366 0.0200622 13.0982C0.0100623 13.1716 6.23233e-05 13.2316 6.23233e-05 13.3049C-0.00185519 13.4846 0.0405018 13.6621 0.123395 13.8216V13.8316C0.155061 13.8932 0.196728 13.9566 0.238394 14.0182C0.278394 14.0799 0.321727 14.1416 0.371726 14.2032C0.423393 14.2549 0.485059 14.3182 0.548392 14.3699C0.608614 14.4303 0.673847 14.4855 0.74339 14.5349C0.991722 14.7516 1.05339 14.8232 1.37339 14.9882C1.42505 15.0199 1.47672 15.0399 1.54005 15.0716C1.55005 15.0716 1.56005 15.0816 1.57005 15.0816C1.57005 15.1032 1.57005 15.1132 1.58005 15.1332C1.60418 15.3036 1.64895 15.4704 1.71338 15.6299C1.74672 15.6916 1.76672 15.7532 1.79672 15.8149C1.80838 15.8366 1.81838 15.8566 1.83005 15.8666C1.87005 15.9499 1.91172 16.0216 1.95171 16.0949L2.10671 16.3115C2.15838 16.3732 2.22171 16.4449 2.28338 16.5082C2.34505 16.5699 2.40671 16.6215 2.48004 16.6832C2.48004 16.6832 2.49004 16.6932 2.50004 16.6932C2.56171 16.7449 2.62338 16.7965 2.68671 16.8382C2.75858 16.8886 2.83438 16.9332 2.91337 16.9715C2.98504 17.0132 3.06837 17.0549 3.15004 17.0865C3.21664 17.1166 3.2858 17.1406 3.3567 17.1582C3.36837 17.1682 3.37837 17.1682 3.39837 17.1782C3.44004 17.1899 3.4917 17.1999 3.5317 17.2099C3.5017 17.7682 3.4917 18.2932 3.57504 18.4799C3.6667 18.6865 4.1217 18.0565 4.57503 17.3332C4.51503 18.0465 4.47336 18.8832 4.57503 19.1315C4.69003 19.3899 5.30836 18.5832 5.84669 17.6949C13.1716 16.0016 19.8549 21.0615 20.5566 28.2115C20.4232 27.0948 19.0483 26.4765 18.4183 26.6315C18.1083 27.3948 17.5816 28.3765 16.7349 28.9865C16.8066 28.3031 16.7766 27.6031 16.6316 26.9198C16.4002 27.871 15.9627 28.7597 15.3499 29.5231C14.37 29.5948 13.3883 29.1198 12.8716 28.4065C12.83 28.3765 12.82 28.3148 12.7883 28.2731C12.7583 28.2015 12.7266 28.1281 12.705 28.0565C12.675 27.9873 12.6543 27.9144 12.6433 27.8398C12.6333 27.7665 12.6333 27.6948 12.6333 27.6115V27.4565C12.6456 27.3832 12.6629 27.3108 12.685 27.2398C12.7066 27.1681 12.7266 27.0965 12.7583 27.0231C12.7983 26.9515 12.83 26.8781 12.8816 26.8065C13.0566 26.3098 13.0566 25.9065 12.7366 25.6698C12.6745 25.6292 12.6086 25.5946 12.54 25.5665C12.5 25.5565 12.4483 25.5365 12.4066 25.5248L12.3233 25.4948C12.2526 25.4719 12.1801 25.4546 12.1066 25.4431C12.0362 25.4225 11.9633 25.4119 11.89 25.4115C11.815 25.3997 11.7392 25.393 11.6633 25.3915C11.6116 25.3915 11.56 25.4015 11.5083 25.4015C11.4311 25.4011 11.3542 25.4117 11.28 25.4331C11.2083 25.4431 11.1366 25.4531 11.0633 25.4731C10.9896 25.4929 10.9172 25.5174 10.8466 25.5465C10.775 25.5765 10.7133 25.6081 10.64 25.6398C10.5783 25.6698 10.5167 25.7115 10.4433 25.7431C8.03667 27.3131 9.47333 30.9898 11.115 32.0548C10.495 32.1681 9.86499 32.3014 9.68999 32.4364L9.66832 32.4564C10.1133 32.7248 10.5783 32.9531 11.0633 33.1498C11.725 33.3664 12.4266 33.5614 12.7366 33.6448V33.6548C13.5925 33.8305 14.4678 33.8933 15.34 33.8414C19.9166 33.5214 23.6666 30.0398 24.3482 25.4531L24.4099 25.7215C24.4415 25.9081 24.4815 26.1048 24.5032 26.2998V26.3098C24.5232 26.4031 24.5332 26.4965 24.5449 26.5798V26.6198C24.5549 26.7131 24.5649 26.8065 24.5649 26.8898C24.5749 27.0031 24.5849 27.1165 24.5849 27.2298V27.3965C24.5849 27.4465 24.5965 27.5081 24.5965 27.5598C24.5965 27.6231 24.5849 27.6848 24.5849 27.7465V27.8915C24.5849 27.9631 24.5749 28.0248 24.5749 28.0981C24.5749 28.1398 24.5749 28.1815 24.5649 28.2315C24.5649 28.3048 24.5549 28.3765 24.5549 28.4598C24.5449 28.4898 24.5449 28.5215 24.5449 28.5515L24.5115 28.7898C24.5115 28.8215 24.5115 28.8515 24.5032 28.8831C24.4915 28.9865 24.4715 29.0798 24.4615 29.1831V29.2031L24.3999 29.4931V29.5231L24.3382 29.8014C24.3382 29.8131 24.3266 29.8348 24.3266 29.8431C24.3075 29.9376 24.2836 30.0311 24.2549 30.1231V30.1531C24.2232 30.2564 24.1932 30.3498 24.1716 30.4431C24.1616 30.4531 24.1616 30.4631 24.1616 30.4631L24.0682 30.7731C24.0282 30.8764 23.9966 30.9698 23.9549 31.0731C23.9132 31.1764 23.8832 31.2798 23.8416 31.3731C23.7999 31.4764 23.7582 31.5681 23.7182 31.6731H23.7066C23.6666 31.7648 23.6232 31.8681 23.5732 31.9614C23.5645 31.9861 23.554 32.0101 23.5416 32.0331C23.5316 32.0431 23.5316 32.0548 23.5216 32.0648C22.8384 33.4325 21.844 34.621 20.6182 35.5347C20.5349 35.5864 20.4532 35.6497 20.3699 35.7114C20.3499 35.7314 20.3199 35.7414 20.2982 35.7614C20.2244 35.816 20.1488 35.8683 20.0716 35.9181L20.1016 35.9797H20.1132L20.5466 35.9181H20.5566C20.8249 35.8764 21.0932 35.8247 21.3616 35.7731C21.4349 35.7631 21.5166 35.7414 21.5899 35.7214L21.7349 35.6897C21.8066 35.6797 21.8782 35.6597 21.9516 35.6497C22.0132 35.6281 22.0749 35.6164 22.1366 35.5981C23.1699 35.3481 24.1716 35.0081 25.1332 34.6064C23.473 36.8678 21.2649 38.6698 18.7166 39.843C19.9066 39.7597 21.0932 39.5647 22.2399 39.233C26.3902 38.0128 29.8956 35.2119 32.0015 31.4331C31.5762 33.8252 30.6274 36.0937 29.2232 38.0764C30.2244 37.416 31.1494 36.6469 31.9815 35.7831C34.2937 33.3691 35.8117 30.3052 36.3315 27.0031C36.6815 28.6365 36.7848 30.3198 36.6315 31.9814C44.0881 21.5798 37.2498 10.7949 34.3881 7.95494C34.3781 7.93328 34.3681 7.92328 34.3681 7.90328C34.3581 7.91328 34.3581 7.91328 34.3581 7.92328C34.3581 7.91328 34.3581 7.91328 34.3465 7.90328C34.3465 8.02661 34.3365 8.14994 34.3265 8.27494C34.2978 8.50632 34.2634 8.73695 34.2231 8.9666C34.1731 9.19327 34.1098 9.4216 34.0481 9.64993C33.9748 9.8666 33.8931 10.0933 33.7981 10.3099C33.7037 10.5239 33.6009 10.7341 33.4898 10.9399C33.2592 11.3449 32.9932 11.7286 32.6948 12.0866C32.5398 12.2716 32.3748 12.4366 32.2082 12.6032C32.1107 12.6923 32.0107 12.7785 31.9082 12.8616L31.6715 13.0682C31.4871 13.2138 31.2939 13.3479 31.0932 13.4699C30.8957 13.5971 30.6922 13.7144 30.4832 13.8216C30.2665 13.9249 30.0498 14.0182 29.8332 14.1116C29.3919 14.2794 28.9353 14.4039 28.4699 14.4832C28.2315 14.5249 27.9949 14.5449 27.7665 14.5666C27.6018 14.5782 27.4367 14.5849 27.2715 14.5866C27.0366 14.5833 26.8019 14.5694 26.5682 14.5449C26.3322 14.5264 26.0978 14.4918 25.8665 14.4416C25.6323 14.3991 25.4012 14.3406 25.1749 14.2666H25.1632C25.3915 14.2449 25.6182 14.2249 25.8465 14.1832C26.3117 14.1026 26.7682 13.9782 27.2099 13.8116C27.4365 13.7282 27.6532 13.6249 27.8599 13.5216C28.0765 13.4182 28.2732 13.3049 28.4799 13.1816C28.6765 13.0482 28.8715 12.9132 29.0582 12.7682C29.2448 12.6232 29.4198 12.4682 29.5848 12.3032C29.7598 12.1482 29.9148 11.9732 30.0698 11.7966C30.2248 11.6116 30.3698 11.4249 30.5032 11.2399C30.5248 11.2083 30.5465 11.1666 30.5665 11.1366C30.6698 10.9699 30.7732 10.8049 30.8665 10.6399C31.0942 10.2288 31.2807 9.79614 31.4232 9.34827C31.4965 9.1316 31.5482 8.90494 31.5998 8.6766C31.6415 8.43994 31.6832 8.21327 31.7032 7.98494C31.7232 7.74828 31.7448 7.50995 31.7448 7.28328C31.7448 7.11661 31.7332 6.95162 31.7232 6.78662C31.7026 6.55526 31.6748 6.32459 31.6398 6.09496C31.5997 5.86211 31.5485 5.6313 31.4865 5.40329C31.4132 5.18663 31.3415 4.9583 31.2582 4.74163C31.1748 4.52497 31.0732 4.3083 30.9698 4.10164C30.8548 3.89497 30.7415 3.68831 30.6182 3.49164C30.4862 3.29856 30.3484 3.10958 30.2048 2.92498C30.0498 2.74831 29.8948 2.57165 29.7298 2.39665C29.6429 2.30798 29.5534 2.22183 29.4615 2.13832C28.9949 1.77665 28.5115 1.43666 28.0249 1.12666C27.9581 1.0881 27.8891 1.0536 27.8182 1.02333C27.5118 0.835716 27.1816 0.688312 26.8365 0.588329Z" fill="white"/>
</svg>
