<svg width="48" height="48" viewBox="0 0 48 48" fill="none" xmlns="http://www.w3.org/2000/svg">
<g filter="url(#filter0_d_313_279)">
<path d="M23.8531 39.9995C13.195 39.926 3.92858 31.0809 4.00041 19.8435C4.06955 9.03038 13.055 -0.0735657 24.1735 0.000448143C34.9792 0.0722562 44.0958 9.0419 43.9992 20.0305C44.0887 30.9193 34.9275 40.0765 23.8531 39.9995ZM23.8531 39.9995C13.195 39.926 3.92858 31.0809 4.00041 19.8435C4.06955 9.03038 13.055 -0.0735657 24.1735 0.000448143C34.9792 0.0722562 44.0958 9.0419 43.9992 20.0305C44.0887 30.9193 34.9275 40.0765 23.8531 39.9995Z" fill="white"/>
<path d="M31.4463 19.9921C31.3951 20.9453 30.5623 21.7368 29.7416 21.5986C29.7377 21.5986 29.7335 21.5986 29.7294 21.5986C28.8203 21.5999 28.0826 20.8638 28.0816 19.9548C28.1125 19.0433 28.8684 18.3249 29.7802 18.3404C30.6892 18.3448 31.4954 19.113 31.4463 19.9921ZM16.829 29.2288C17.1718 29.2389 17.5148 29.2315 17.91 29.2315V31.7155C15.4533 32.1309 13.4297 31.4333 12.9331 29.3567C12.7631 28.5931 12.6585 27.8164 12.6203 27.0349C12.5675 26.2076 12.6588 25.3709 12.5957 24.5451C12.421 22.2726 12.1266 21.4968 9.94592 21.3894V18.5612C10.1022 18.5246 10.2607 18.4976 10.4202 18.4797C11.6158 18.4209 12.1197 18.0543 12.3872 16.8766C12.5089 16.2149 12.581 15.5451 12.6023 14.8726C12.6971 13.5722 12.6634 12.2507 12.8801 10.9715C13.1932 9.12153 14.3416 8.22281 16.2387 8.12221C16.7785 8.09326 17.32 8.1178 17.9316 8.1178V10.6567C17.6799 10.6746 17.4493 10.7112 17.2201 10.7043C15.6741 10.6569 15.5942 11.1835 15.4813 12.4632C15.4109 13.2658 15.508 14.0821 15.4533 14.8873C15.3962 15.6886 15.2889 16.4858 15.1324 17.2738C14.9094 18.4159 14.2072 19.2654 13.2341 19.9862C15.1231 21.2154 15.338 23.1255 15.4607 25.065C15.5267 26.1072 15.4965 27.1568 15.6023 28.1939C15.6847 28.9989 15.9978 29.2043 16.829 29.2288ZM18.4211 18.3404C18.4309 18.3404 18.4405 18.3404 18.4503 18.3404C19.3534 18.3553 20.0738 19.0995 20.0588 20.0029C20.0588 20.0326 20.0578 20.062 20.0561 20.0915C20.0053 20.9742 19.2487 21.6485 18.3659 21.5977C18.3303 21.5984 18.295 21.5977 18.2594 21.5959C17.3605 21.5513 16.6678 20.7863 16.7125 19.8873C16.7571 18.9884 17.5221 18.2957 18.4211 18.3404ZM24.0492 18.3404C25.037 18.3328 25.6931 18.9729 25.6982 19.9494C25.7036 20.9521 25.0817 21.5937 24.1003 21.5979C23.1022 21.6023 22.4451 20.971 22.4397 20.0004C22.4368 19.9509 22.436 19.9013 22.4375 19.8517C22.4652 18.9893 23.1868 18.3127 24.0492 18.3404ZM35.833 17.1033C36.0958 18.0847 36.6073 18.4297 37.6405 18.4768C37.8098 18.4846 37.9783 18.5134 38.2104 18.5391V21.3665C38.0848 21.4078 37.956 21.4387 37.8252 21.4588C36.4407 21.5449 35.8097 22.1129 35.6698 23.5011C35.5805 24.3873 35.5879 25.2833 35.5265 26.1727C35.5008 27.1492 35.412 28.123 35.2606 29.088C34.9073 30.8364 33.8157 31.7086 32.0121 31.8151C31.4316 31.8494 30.8469 31.8205 30.2211 31.8205V29.2934C30.5579 29.2725 30.8553 29.2438 31.1534 29.2367C32.231 29.2109 32.612 28.8635 32.6648 27.7933C32.7232 26.6176 32.7487 25.4404 32.8012 24.2644C32.8775 22.5646 33.3429 21.0461 34.9264 19.986C34.0203 19.3399 33.2929 18.5575 33.1044 17.5025C32.8765 16.2237 32.8029 14.9167 32.6802 13.6201C32.6196 12.9718 32.6226 12.318 32.5593 11.6702C32.491 10.971 32.0106 10.7291 31.3742 10.7134C31.0096 10.7045 30.6435 10.7117 30.1774 10.7117V8.24391C33.152 7.75002 35.2068 8.73976 35.3977 11.5858C35.4777 12.781 35.4659 13.9817 35.5425 15.1768C35.5761 15.827 35.6733 16.4723 35.833 17.1033Z" fill="#212424"/>
</g>
<defs>
<filter id="filter0_d_313_279" x="0" y="0" width="48" height="48" filterUnits="userSpaceOnUse" color-interpolation-filters="sRGB">
<feFlood flood-opacity="0" result="BackgroundImageFix"/>
<feColorMatrix in="SourceAlpha" type="matrix" values="0 0 0 0 0 0 0 0 0 0 0 0 0 0 0 0 0 0 127 0" result="hardAlpha"/>
<feOffset dy="4"/>
<feGaussianBlur stdDeviation="2"/>
<feComposite in2="hardAlpha" operator="out"/>
<feColorMatrix type="matrix" values="0 0 0 0 0 0 0 0 0 0 0 0 0 0 0 0 0 0 0.25 0"/>
<feBlend mode="normal" in2="BackgroundImageFix" result="effect1_dropShadow_313_279"/>
<feBlend mode="normal" in="SourceGraphic" in2="effect1_dropShadow_313_279" result="shape"/>
</filter>
</defs>
</svg>
