<svg width="40" height="40" viewBox="0 0 40 40" fill="none" xmlns="http://www.w3.org/2000/svg">
<path id="Vector" d="M33.3333 26.6667C30.4444 26.6667 28 28.4444 27.1111 31.1111H17.7778C17.7778 29.5556 17.3333 28.2222 16.6667 27.1111L32.4444 10.8889C33.1111 10.8889 33.7778 11.1111 34.4444 11.1111C37.5556 11.1111 40 8.66667 40 5.55556C40 2.44444 37.5556 0 34.4444 0C31.3333 0 28.8889 2.44444 28.8889 5.55556C28.8889 6.22222 29.1111 7.11111 29.3333 7.77778L13.7778 23.7778C12.4444 22.6667 10.6667 22.2222 8.88889 22.2222V12.8889C11.5556 12 13.3333 9.55556 13.3333 6.66667C13.3333 2.88889 10.4444 0 6.66667 0C2.88889 0 0 2.88889 0 6.66667C0 9.55556 1.77778 12 4.44444 12.8889V23.3333C1.77778 24.8889 0 27.7778 0 30.8889C0 35.7778 4 39.7778 8.88889 39.7778C12.2222 39.7778 15.1111 38 16.4444 35.3333H26.8889C27.7778 37.7778 30.2222 39.7778 33.1111 39.7778C36.6667 39.7778 39.7778 36.8889 39.7778 33.1111C40 29.5556 36.8889 26.6667 33.3333 26.6667Z" fill="white"/>
</svg>
