<svg width="40" height="40" viewBox="0 0 40 40" fill="none" xmlns="http://www.w3.org/2000/svg">
<path id="Vector" d="M20.0004 0C8.95398 0 0 8.95398 0 19.9997C0 31.0461 8.95398 40 20.0004 40C31.0461 40 40 31.0461 40 19.9997C40 8.95398 31.0461 0 20.0004 0ZM14.6145 15.8681C14.6145 15.8967 14.6023 15.922 14.5805 15.9397L8.95133 20.1258L14.5805 24.3139C14.6023 24.3289 14.6145 24.3562 14.6145 24.3834V26.967C14.6145 26.9991 14.5988 27.0277 14.573 27.0427C14.5614 27.0488 14.5498 27.0528 14.5362 27.0528C14.5212 27.0528 14.5055 27.0473 14.4926 27.0372L6.38547 21.0073C6.36438 20.9916 6.3507 20.9651 6.3507 20.9372V19.3149C6.3507 19.2863 6.3643 19.2598 6.38547 19.2441L14.4926 13.2144C14.5055 13.2041 14.5212 13.1994 14.5362 13.1994C14.5498 13.1994 14.5614 13.2028 14.573 13.2095C14.5989 13.2238 14.6145 13.2525 14.6145 13.2852V15.8681ZM18.6343 28.1566C18.6227 28.1913 18.5941 28.2145 18.56 28.2145H16.2939C16.268 28.2145 16.2448 28.2008 16.2298 28.1776C16.2155 28.1559 16.2114 28.1272 16.2196 28.1013L21.3657 11.8421C21.3759 11.808 21.4059 11.7855 21.4393 11.7855H23.706C23.7305 11.7855 23.7551 11.7985 23.7694 11.821C23.7837 11.8435 23.7878 11.8721 23.7796 11.8987L18.6343 28.1566ZM33.648 20.9372C33.648 20.9651 33.6358 20.9917 33.6139 21.0073L25.5068 27.0371C25.4938 27.0473 25.4789 27.0527 25.4632 27.0527C25.4502 27.0527 25.438 27.0487 25.4264 27.0426C25.4005 27.0276 25.3848 26.999 25.3848 26.967V24.384C25.3848 24.3561 25.3971 24.3288 25.4189 24.3138L31.048 20.1257L25.4189 15.9396C25.3972 15.9233 25.3848 15.8974 25.3848 15.8688V13.2852C25.3848 13.2525 25.4005 13.2238 25.4264 13.2095C25.438 13.2028 25.4502 13.1994 25.4632 13.1994C25.4789 13.1994 25.4938 13.2041 25.5068 13.2144L33.6139 19.2441C33.6358 19.2598 33.648 19.2863 33.648 19.3149V20.9372Z" fill="white"/>
</svg>
