<svg width="48" height="49" viewBox="0 0 48 49" fill="none" xmlns="http://www.w3.org/2000/svg">
<g id="Group 4">
<path id="Vector" d="M23.7382 0.800049C10.6891 0.800049 0 11.3696 0 24.5815C0 37.6544 10.5503 48.363 23.7382 48.363C36.7873 48.363 47.4764 37.7934 47.4764 24.5815C47.4764 11.3696 36.7873 0.800049 23.7382 0.800049ZM23.7382 46.4159C11.6609 46.4159 1.94347 36.6808 1.94347 24.5815C1.94347 12.4822 11.6609 2.74707 23.7382 2.74707C35.8155 2.74707 45.5329 12.4822 45.5329 24.5815C45.6717 36.5418 35.8155 46.4159 23.7382 46.4159Z" fill="#77787B"/>
<path id="Vector_2" d="M23.7488 41.6411C24.5817 41.6411 24.9981 41.0848 25.137 40.3895C25.2758 40.6676 25.5534 40.9457 25.8311 41.0848C26.1087 41.0848 26.5252 41.0848 26.8028 40.9458C27.0804 40.8067 27.3581 40.5285 27.4969 40.2504C27.6357 39.9722 27.6357 39.555 27.4969 39.2769C27.9134 39.8332 28.4686 39.9722 29.1627 39.6941C29.9957 39.2769 30.2733 38.7206 29.8568 37.8861C28.8851 35.5219 27.9134 33.2967 26.9416 30.9325C26.8028 30.6544 26.8028 30.5153 26.664 30.2371C26.5252 30.0981 26.5252 29.959 26.3864 29.8199C26.3864 29.6809 26.2475 29.6808 26.1087 29.5418C27.6357 29.6808 28.3298 30.2371 28.7463 30.5153C28.8851 30.6544 28.8851 30.6544 29.3016 30.5153C29.4404 30.5153 29.718 30.5153 29.8568 30.5153C29.9957 30.6544 30.2733 30.7934 30.4121 30.7934C30.9674 31.2106 31.5227 31.6279 32.078 32.0451C32.3556 32.3232 32.6332 32.6014 32.6332 33.0186C32.6332 33.2967 31.8003 33.9921 31.6615 34.2703C31.1062 34.8265 31.9391 35.661 33.0497 35.661C32.7721 35.3828 32.6332 35.1047 32.7721 34.8265C32.9109 34.8265 33.0497 34.8265 33.3273 34.6875C33.605 34.5484 33.4662 33.853 33.605 33.714C34.0214 33.2967 35.132 33.2967 35.9649 33.2967C36.2426 33.2967 36.659 33.1577 36.5202 32.7405C36.9367 32.7405 37.0755 33.1577 37.0755 33.4358C37.4919 33.1577 37.7696 32.1842 36.3814 31.906C36.659 31.6279 37.0755 31.6279 37.3531 31.906C37.6308 31.4888 36.9367 30.7934 35.8261 31.2107C35.8261 31.2107 35.2708 30.5153 33.8826 32.1842C33.7438 32.0451 33.4662 31.906 33.3273 31.7669C32.7721 31.2107 31.3839 29.8199 31.3839 29.8199C31.3839 28.9855 31.245 27.4557 30.2733 26.6212C29.8568 26.204 29.4404 26.065 28.4686 25.7868C28.4686 25.7868 28.8851 25.0915 29.0239 24.8133C29.8568 25.6477 31.5227 25.9259 31.5227 24.5352C32.9109 25.9259 34.1603 25.0914 34.1603 24.257C34.1603 24.6742 34.2991 25.0915 34.4379 25.5087C34.5767 25.9259 35.2708 27.7338 36.7978 27.7338C36.7978 28.2901 36.7978 30.3762 38.7413 30.7934C38.8801 30.7934 38.8801 30.7934 39.019 30.9325C39.8519 31.906 43.0447 32.8795 43.3224 32.6014C43.0447 32.4623 42.6283 32.1842 42.6283 31.0716C42.6283 30.3762 42.4895 26.4822 42.4895 21.0583C42.4895 19.1113 42.3506 12.853 36.1037 12.0186C35.132 11.8795 34.2991 12.0186 33.4662 12.5749C32.3556 13.4093 31.8003 14.8001 32.4944 16.3299V16.4689C32.7721 16.8862 32.6332 17.1643 32.3556 17.4424C31.8003 17.9987 31.245 18.2769 30.5509 18.4159C30.1345 18.4159 29.718 18.2769 29.4404 17.9987C28.7463 17.3034 28.3298 16.4689 28.0522 15.4954C27.7745 13.6875 28.191 12.714 28.191 12.5749C28.7463 11.6014 29.718 10.7669 30.9674 10.7669C31.5227 9.65436 33.1885 10.0716 33.1885 10.0716C33.605 10.2106 33.7438 10.2107 33.8826 10.4888C33.8826 10.4888 34.5767 9.37622 33.8826 8.959C33.1885 8.54178 31.6615 8.40271 31.6615 8.40271C31.6615 7.70734 30.5509 7.15105 28.3298 7.56827C25.8311 7.98549 25.2758 7.01198 25.2758 7.01198C25.137 8.26363 26.1087 8.81993 26.3864 9.09807C25.4146 10.2107 24.0264 12.2967 23.7488 15.2173C23.4711 12.2967 22.0829 10.2107 21.1112 9.09807C21.3888 8.959 22.3606 8.26363 22.2218 7.01198C22.2218 7.01198 21.6665 7.98549 19.1677 7.56827C17.0854 7.15105 15.836 7.70734 15.836 8.40271C15.836 8.40271 14.309 8.54178 13.6149 8.959C12.9208 9.37622 13.6149 10.4888 13.6149 10.4888C13.7537 10.3497 13.8926 10.2106 14.309 10.0716C14.309 10.0716 15.9749 9.65436 16.5301 10.7669C17.7795 10.906 18.7512 11.6014 19.3065 12.5749C19.3065 12.5749 19.8618 13.5484 19.4454 15.4954C19.3065 16.4689 18.7513 17.3034 18.0572 17.9987C17.7795 18.2769 17.3631 18.555 16.9466 18.4159C16.2525 18.2769 15.6972 17.9987 15.1419 17.4424C14.8643 17.1643 14.7255 16.8862 15.0031 16.4689V16.3299C15.6972 14.8001 15.1419 13.4093 14.0314 12.5749C13.1985 12.0186 12.3655 11.8795 11.3938 12.0186C5.28573 12.853 5.00809 19.1113 5.00809 21.0583C5.00809 26.4822 4.86927 30.3762 4.86927 31.0716C4.86927 32.1842 4.45281 32.4623 4.17517 32.6014C4.59163 32.8795 7.78449 31.906 8.47858 30.9325C8.47858 30.9325 8.6174 30.7934 8.75622 30.7934C10.6997 30.3762 10.6997 28.2901 10.6997 27.7338C12.2267 27.7338 12.9208 25.9259 13.0596 25.5087C13.1985 25.0915 13.3373 24.6742 13.3373 24.257C13.3373 25.0914 14.5867 25.7868 15.9749 24.5352C15.9749 25.9259 17.6407 25.6477 18.4736 24.8133C18.6124 25.0915 19.0289 25.7868 19.0289 25.7868C18.0572 25.9259 17.6407 26.204 17.2242 26.6212C16.1137 27.5948 16.1137 29.1246 16.1137 29.8199C16.1137 29.8199 14.7255 31.2107 14.1702 31.7669C14.0314 31.906 13.7537 32.0451 13.6149 32.1842C12.0879 30.5153 11.6714 31.2107 11.6714 31.2107C10.5609 30.7934 10.0056 31.4888 10.1444 31.906C10.4221 31.6279 10.8385 31.7669 11.1162 31.906C9.58915 32.1842 10.0056 33.2967 10.4221 33.4358C10.4221 33.1577 10.5609 32.7405 10.9773 32.7405C10.9773 33.1577 11.255 33.2967 11.5326 33.2967C12.2267 33.2967 13.4761 33.2967 13.8926 33.714C14.1702 33.853 14.0314 34.5484 14.1702 34.6875C14.309 34.8265 14.5867 34.8265 14.7255 34.8265C14.7255 35.1047 14.7255 35.2438 14.4478 35.661C15.5584 35.8001 16.2525 34.8265 15.836 34.2703C15.5584 33.9921 14.8643 33.2967 14.8643 33.0186C14.8643 32.7404 15.1419 32.3232 15.4196 32.0451C15.9749 31.6279 16.5301 31.2106 17.0854 30.7934C17.2242 30.6544 17.3631 30.5153 17.6407 30.5153C17.7795 30.3762 18.0572 30.3762 18.196 30.5153C18.6124 30.6544 18.6124 30.6544 18.7513 30.5153C19.1677 30.2371 19.8618 29.6808 21.3888 29.5418C21.25 29.5418 21.25 29.6809 21.1112 29.8199C20.9724 29.959 20.9724 30.0981 20.8336 30.2371C20.6947 30.3762 20.6947 30.6544 20.5559 30.9325C19.5842 33.2967 18.6124 35.5219 17.6407 37.8861C17.3631 38.7206 17.6407 39.2769 18.3348 39.6941C18.8901 39.9722 19.5842 39.8332 20.0006 39.2769C19.8618 39.6941 19.8618 39.9722 20.0006 40.2504C20.1394 40.5285 20.4171 40.8067 20.6947 40.9458C20.9724 41.0848 21.3888 41.0848 21.6665 41.0848C22.0829 40.9457 22.2218 40.8067 22.3606 40.3895C22.4994 41.0848 22.9159 41.6411 23.7488 41.6411Z" fill="#77787B"/>
</g>
</svg>
