<svg width="46" height="53" viewBox="0 0 46 53" fill="none" xmlns="http://www.w3.org/2000/svg">
<g id="Group">
<path id="Vector" d="M16.4011 17.3739C15.0344 19.9899 13.6569 22.6487 12.2902 25.2648C15.6537 24.229 18.7289 22.5633 21.3449 20.3636C22.669 21.3567 23.5873 22.7341 24.7085 23.93C25.8296 25.0939 27.3245 26.1724 29.0223 26.2578C29.1077 23.93 28.4777 21.6129 27.2818 19.5735C30.1435 21.1538 33.3895 22.1896 36.6676 22.606C36.422 18.9542 34.1797 15.4625 30.8162 13.4337C31.8519 11.8534 32.3111 9.89939 32.0228 8.07349C30.0687 9.98481 27.7089 11.5224 25.1356 12.6009C25.3812 15.5052 24.8046 17.5874 24.7618 17.7903C24.6337 18.2494 24.1105 18.6872 23.4698 18.495C22.9253 18.3242 22.5943 17.7903 22.7651 17.203C22.8078 17.0322 23.267 15.2917 23.0534 12.8465C22.8505 12.761 17.4048 9.9421 14.8742 8.60738C15.0771 10.5614 16.1235 12.3873 17.6611 13.7114C16.2516 14.6297 14.3403 14.4588 12.6425 14.7044C10.9448 14.95 8.99072 16.1139 9.32174 17.6515C11.6281 18.4203 14.2442 18.3349 16.4011 17.3739Z" fill="#3B5503"/>
<path id="Vector_2" d="M25.1569 12.5582C24.8686 9.10927 23.4912 4.50714 18.8463 0.438893C18.4299 0.0651694 17.7679 0.107881 17.3942 0.524315C17.0204 0.94075 17.0631 1.60277 17.4796 1.9765C21.676 5.62831 22.8719 9.78198 23.0854 12.8145C23.993 13.2736 24.7725 12.6223 25.1569 12.5582Z" fill="#3B5503"/>
<path id="Vector_3" d="M38.0344 19.1677C38.7818 20.8228 38.9099 24.9765 38.9099 24.9765C38.9099 24.9765 32.8022 24.2824 30.8589 23.3534C31.2646 25.0298 30.987 28.372 30.987 28.372C24.922 28.8311 22.5088 24.3038 21.1848 23.0972C18.7609 24.9337 15.1625 26.813 8.18988 28.703L12.5891 20.2355H12.5357C10.6885 20.4064 7.80548 19.2852 7.80548 19.2852C3.0325 22.7768 0 27.8381 0 33.5294C0 44.0363 10.2934 52.5038 23 52.5038C35.7066 52.5038 46 44.0363 46 33.5294C46 27.7954 42.9248 22.6487 38.0344 19.1677Z" fill="#C52121"/>
</g>
</svg>
