<svg width="40" height="34" viewBox="0 0 40 34" fill="none" xmlns="http://www.w3.org/2000/svg">
<path d="M19.3082 7.05627C22.3619 7.05627 25.2393 8.25568 27.348 10.1306V10.1362C27.348 9.2358 28.0317 8.5547 28.9767 8.5547H29.2167C30.7079 8.5547 31.0066 9.80062 31.0066 10.1938L31.0128 24.1869C30.9091 25.1039 32.0816 25.5779 32.7328 24.9887C35.264 22.6818 38.2976 13.1175 31.1566 7.58011C24.4968 2.41147 15.5583 3.26534 10.806 6.16696C5.7549 9.25906 2.52626 16.0889 5.66241 22.5079C9.0873 29.5061 18.8782 31.5937 24.7056 29.5117C27.6555 28.4562 29.0154 31.9847 25.9493 33.1398C21.3282 34.8863 8.44982 34.708 2.43501 25.4793C-1.62861 19.2453 -1.41362 8.27893 9.36854 2.59753C17.6095 -1.75157 28.4829 -0.546622 35.0377 5.51686C41.8875 11.8617 41.4913 23.7328 34.804 28.3477C31.7753 30.4464 27.278 28.4053 27.3105 25.3475L27.2767 24.3508C25.168 26.2014 22.3619 27.2867 19.3082 27.2867C13.2672 27.2867 7.94858 22.5733 7.94858 17.2263C7.94858 11.8218 13.2672 7.05848 19.3082 7.05848V7.05627ZM26.9067 16.8398C26.678 12.9226 23.3968 10.5637 19.432 10.5637H19.282C14.7121 10.5637 12.1734 13.7532 12.1734 17.3692C12.1734 21.4237 15.2396 23.9842 19.2632 23.9842C23.7543 23.9842 26.703 21.0726 26.918 17.6283L26.9067 16.8398Z" fill="white"/>
</svg>
