<svg width="47" height="48" viewBox="0 0 47 48" fill="none" xmlns="http://www.w3.org/2000/svg">
<g id="curriculum-vitae-resume-svgrepo-com 1" clip-path="url(#clip0_316_227)">
<g id="Group">
<g id="Group_2">
<path id="Vector" d="M32.0217 1.53467V9.79419H40.2812L32.0217 1.53467Z" fill="black"/>
</g>
</g>
<g id="Group_3">
<g id="Group_4">
<path id="Vector_2" d="M21.4237 7.65627L19.9964 7.15512C19.8979 7.12175 19.7899 7.12108 19.6898 7.15952C19.3812 7.27646 18.9717 7.42898 18.7141 7.51112C18.5202 7.57327 18.3196 7.60445 18.116 7.60445H16.8227C16.7529 7.62137 16.6268 7.66402 16.5006 7.76394C16.4883 7.7737 16.4772 7.79129 16.465 7.80229C16.4145 7.84704 16.3635 7.89456 16.3183 7.96121C16.2618 8.04459 16.2119 8.14633 16.1765 8.27141V10.3346V10.8328C16.1765 10.8328 16.238 12.5333 17.2715 13.2173C17.2832 13.2254 17.2917 13.2318 17.3031 13.2395C17.3041 13.2401 17.3052 13.2404 17.3062 13.2411C17.3137 13.2461 17.3208 13.252 17.3283 13.2571C17.4422 13.3358 17.5378 13.405 17.6267 13.475C18.2716 13.9813 18.7623 14.1642 18.8816 14.1605C18.9275 14.1597 18.9659 14.1612 19.0074 14.1679C19.0488 14.1712 19.5115 14.2083 20.0598 13.8268C20.1383 13.772 20.2186 13.7091 20.2999 13.6357C20.4746 13.4779 20.6596 13.3344 20.8521 13.2011C20.858 13.1975 20.9128 13.1589 20.9188 13.1552C21.1855 12.9755 21.8407 12.3656 21.993 10.7281V8.26854C21.9707 8.17292 21.8619 7.81768 21.4237 7.65627Z" fill="black"/>
</g>
</g>
<g id="Group_5">
<g id="Group_6">
<path id="Vector_3" d="M17.4496 16.2194L16.8014 15.7864L17.5681 17.1807L17.7228 16.969L17.7258 16.9653L17.8127 16.8472L18.0024 16.589L17.4496 16.2194Z" fill="black"/>
</g>
</g>
<g id="Group_7">
<g id="Group_8">
<path id="Vector_4" d="M22.1002 5.8269C21.8788 5.77355 21.6923 5.62332 21.5939 5.41821C21.4954 5.21244 21.4939 4.97405 21.5909 4.76751C21.5931 4.76168 21.5962 4.74456 21.599 4.72754C21.5828 4.7261 21.5524 4.71645 21.505 4.70459H17.4415C16.357 4.70459 15.4724 5.57886 15.456 6.65967C15.4728 6.64485 15.4907 6.63519 15.5077 6.62104C15.5667 6.57189 15.6261 6.52915 15.6866 6.48765C15.7276 6.45963 15.7673 6.42989 15.8084 6.40532C15.874 6.36573 15.9383 6.33351 16.0034 6.30205C16.0394 6.28464 16.0751 6.26447 16.1103 6.24945C16.1824 6.21886 16.2507 6.19581 16.3189 6.1743C16.345 6.16607 16.3724 6.1545 16.3977 6.14743C16.4891 6.12228 16.5755 6.10401 16.653 6.09397C16.6848 6.09034 16.7175 6.08805 16.7501 6.08805H18.1159C18.1626 6.08805 18.2085 6.08068 18.2529 6.06663C18.4889 5.99108 18.8658 5.85042 19.1516 5.7417C19.2622 5.69973 19.3758 5.66874 19.4908 5.64752C19.5198 5.64216 19.5494 5.64264 19.5785 5.63862C19.6653 5.62657 19.752 5.61567 19.8392 5.61529C19.8426 5.61529 19.8456 5.61443 19.8489 5.61443C19.9104 5.61443 19.9712 5.62409 20.0324 5.62983C20.0787 5.63413 20.1253 5.63375 20.1714 5.6414C20.2819 5.65976 20.3912 5.6871 20.4981 5.72478L21.9358 6.22966C22.086 6.28483 22.221 6.35139 22.3459 6.42416C22.3926 6.45141 22.4316 6.48268 22.4749 6.51165C22.5478 6.56089 22.6202 6.60976 22.6841 6.6634C22.6958 6.67335 22.7112 6.68147 22.7228 6.69151V6.49606C22.6954 6.37099 22.5674 5.93868 22.1002 5.8269Z" fill="black"/>
</g>
</g>
<g id="Group_9">
<g id="Group_10">
<path id="Vector_5" d="M26.7493 18.2838C26.6864 17.9063 26.4244 17.5908 26.0638 17.4606L22.8191 16.2864L21.3533 18.9524C21.229 19.1796 20.9973 19.3271 20.7388 19.344C20.7219 19.3447 20.7056 19.3455 20.6893 19.3455C20.4487 19.3455 20.2214 19.2314 20.0785 19.0361L19.0828 17.6802L18.9836 17.8145C18.983 17.8157 18.982 17.8169 18.9812 17.818L18.9814 17.8182L18.9457 17.8662L18.9459 17.8663L18.0879 19.0361C17.9443 19.2315 17.717 19.3455 17.4764 19.3455C17.4602 19.3455 17.4438 19.3447 17.4269 19.344C17.1693 19.3271 16.9367 19.1796 16.8124 18.9524L15.3461 16.2864L12.1011 17.4606C11.7414 17.5908 11.4786 17.9063 11.4156 18.2838L11.0173 20.6898L11.0787 20.7616H27.087L27.1477 20.6898L26.7493 18.2838Z" fill="black"/>
</g>
</g>
<g id="Group_11">
<g id="Group_12">
<path id="Vector_6" d="M31.2635 11.3102C30.8445 11.3102 30.5054 10.9712 30.5054 10.5523V0.776367H5.96059V47.7764H41.0393V11.3102H31.2635ZM9.52173 20.4418L9.92009 18.0366C10.0718 17.1186 10.71 16.3516 11.5857 16.0348L15.4398 14.6401C15.4398 14.6401 15.4406 14.6401 15.4411 14.6399C15.4411 14.6399 15.4417 14.6395 15.442 14.6394L16.1238 14.3953V14.242C14.7264 13.0325 14.6624 10.9441 14.6603 10.8491V10.3697C14.6444 10.1247 14.573 9.91962 14.4456 9.76156C14.119 9.35507 13.9399 8.84206 13.9399 8.31643V6.68933C13.9399 4.75863 15.5108 3.18843 17.4415 3.18843H21.5864C21.6353 3.18843 21.6834 3.19292 21.7307 3.20248C22.4725 3.34611 22.8101 3.73548 22.9634 4.03611C23.0648 4.23673 23.1077 4.43658 23.1166 4.62094C23.868 5.07179 24.1722 5.86096 24.2329 6.3361C24.2366 6.36794 24.2389 6.39979 24.2389 6.43163V8.64508C24.2389 8.98635 24.1426 9.3217 23.9598 9.61488C23.6141 10.1686 23.5015 10.8771 23.5008 10.8844C23.4989 10.8973 23.4913 10.9073 23.4887 10.9197C23.2931 12.7588 22.5915 13.717 22.0417 14.1951V14.3953L22.7228 14.6392L22.7236 14.6397C22.724 14.6399 22.7244 14.6397 22.725 14.6399L26.579 16.0346C27.4547 16.3508 28.0929 17.1176 28.2447 18.0364L28.6429 20.4423C28.7192 20.8999 28.5904 21.3662 28.2906 21.72C27.99 22.0747 27.5518 22.2775 27.0869 22.2775H11.0786C10.6137 22.2775 10.1747 22.0739 9.87419 21.72C9.57432 21.3657 9.44552 20.9001 9.52173 20.4418ZM31.878 43.565H10.2584C9.83939 43.565 9.50031 43.2259 9.50031 42.8069C9.50031 42.388 9.83939 42.0489 10.2584 42.0489H31.878C32.297 42.0489 32.636 42.388 32.636 42.8069C32.6361 43.2259 32.2971 43.565 31.878 43.565ZM36.7418 39.5208H10.2584C9.83939 39.5208 9.50031 39.1817 9.50031 38.7628C9.50031 38.3438 9.83939 38.0047 10.2584 38.0047H36.7418C37.1607 38.0047 37.4998 38.3438 37.4998 38.7628C37.4998 39.1817 37.1607 39.5208 36.7418 39.5208ZM36.7418 35.4758H10.2584C9.83939 35.4758 9.50031 35.1367 9.50031 34.7177C9.50031 34.2988 9.83939 33.9597 10.2584 33.9597H36.7418C37.1607 33.9597 37.4998 34.2988 37.4998 34.7177C37.4998 35.1367 37.1607 35.4758 36.7418 35.4758ZM36.7418 31.4316H10.2584C9.83939 31.4316 9.50031 31.0925 9.50031 30.6736C9.50031 30.2545 9.83939 29.9155 10.2584 29.9155H36.7418C37.1607 29.9155 37.4998 30.2545 37.4998 30.6736C37.4998 31.0925 37.1607 31.4316 36.7418 31.4316ZM36.7418 27.3873H10.2584C9.83939 27.3873 9.50031 27.0482 9.50031 26.6292C9.50031 26.2102 9.83939 25.8711 10.2584 25.8711H36.7418C37.1607 25.8711 37.4998 26.2102 37.4998 26.6292C37.4998 27.0482 37.1607 27.3873 36.7418 27.3873Z" fill="#212424"/>
</g>
</g>
<g id="Group_13">
<g id="Group_14">
<path id="Vector_7" d="M20.1629 16.5893L20.5974 17.1816L21.3636 15.7869L20.1629 16.5893Z" fill="black"/>
</g>
</g>
</g>
<defs>
<clipPath id="clip0_316_227">
<rect width="47" height="47" fill="white" transform="translate(0 0.776367)"/>
</clipPath>
</defs>
</svg>
