<svg width="40" height="30" viewBox="0 0 40 30" fill="none" xmlns="http://www.w3.org/2000/svg">
<path id="Vector" d="M30.8548 6.34011L31.2298 5.7726L31.8849 6.17011L32.1749 6.37761C32.8749 6.91762 34.3474 8.29765 34.6649 10.5877C35.2224 10.4877 35.7849 10.4377 36.3474 10.4377C37.6825 10.4377 38.58 10.7477 39.09 11.0052L39.3525 11.1477L39.5225 11.2602L40 11.6502L39.835 12.1502C39.5785 12.8357 39.1778 13.4581 38.66 13.9752C37.935 14.7228 36.6599 15.6053 34.6374 15.7203L34.1924 15.7328H33.8224C32.8974 18.1753 31.6549 20.9279 29.5673 23.3979C28.3287 24.8657 26.8595 26.1221 25.2172 27.118C23.2484 28.286 21.0925 29.1048 18.8446 29.538C17.2346 29.8505 15.5996 30.0055 13.962 30.0005C10.337 30.0005 7.13692 29.2805 5.16938 28.0205C3.41185 26.898 2.06183 25.0654 1.15431 22.5779C0.360114 20.3049 -0.0299494 17.9103 0.00179243 15.5028C-0.002321 15.1941 0.104396 14.8942 0.302566 14.6575C0.500736 14.4208 0.777219 14.263 1.08181 14.2128L1.25181 14.2003H27.6023L27.8323 14.1827L28.2048 14.1427C28.8448 14.0577 29.8198 13.8677 30.5048 13.4677C29.6848 12.1102 29.4523 10.5227 29.8348 8.83266C29.995 8.1277 30.2472 7.44686 30.5848 6.80762L30.8548 6.34011ZM7.22442 9.46017L7.32442 9.47767C7.3701 9.49476 7.41122 9.52214 7.44461 9.55769C7.47799 9.59325 7.50274 9.63601 7.51693 9.68267L7.53193 9.78267V13.0702L7.51693 13.1727C7.50248 13.2197 7.47736 13.2626 7.44352 13.2982C7.40969 13.3337 7.36806 13.361 7.32192 13.3777L7.22442 13.3927H3.69436C3.62856 13.3919 3.56476 13.3701 3.51217 13.3305C3.45959 13.291 3.42095 13.2357 3.40185 13.1727L3.38435 13.0727V9.78017L3.40185 9.68017C3.41596 9.63279 3.44093 9.58936 3.47479 9.55333C3.50864 9.51731 3.55044 9.48969 3.59686 9.47267L3.69436 9.45767L7.22442 9.46017ZM12.092 9.46017L12.1895 9.47767C12.2356 9.49444 12.2773 9.52168 12.3111 9.55725C12.3449 9.59282 12.3701 9.63575 12.3845 9.68267L12.3995 9.78267V13.0702L12.382 13.1727C12.3676 13.2197 12.3424 13.2626 12.3086 13.2982C12.2748 13.3337 12.2331 13.361 12.187 13.3777L12.0895 13.3927H8.55944C8.49375 13.3915 8.43013 13.3695 8.37761 13.33C8.3251 13.2905 8.28638 13.2355 8.26694 13.1727L8.24944 13.0752V9.78267C8.24891 9.71578 8.26903 9.65035 8.30706 9.59531C8.34509 9.54028 8.39918 9.49832 8.46194 9.47517L8.55944 9.45767L12.092 9.46017ZM17.0321 9.46017L17.1296 9.47767C17.1753 9.49476 17.2164 9.52214 17.2498 9.55769C17.2832 9.59325 17.3079 9.63601 17.3221 9.68267L17.3396 9.78267V13.0702L17.3221 13.1727C17.3077 13.2197 17.2825 13.2626 17.2487 13.2982C17.2149 13.3337 17.1732 13.361 17.1271 13.3777L17.0296 13.3927H13.4995C13.4337 13.3919 13.3699 13.3701 13.3173 13.3305C13.2648 13.291 13.2261 13.2357 13.207 13.1727L13.192 13.0727V9.78017L13.207 9.68017C13.2211 9.63279 13.2461 9.58936 13.28 9.55333C13.3138 9.51731 13.3556 9.48969 13.402 9.47267L13.4995 9.45767L17.0321 9.46017ZM21.9122 9.46017L22.0097 9.47767C22.0558 9.49444 22.0974 9.52168 22.1313 9.55725C22.1651 9.59282 22.1902 9.63575 22.2047 9.68267L22.2222 9.78267V13.0702C22.2227 13.1371 22.2026 13.2026 22.1646 13.2576C22.1265 13.3126 22.0724 13.3546 22.0097 13.3777L21.9097 13.3927H18.3821C18.3163 13.3919 18.2525 13.3701 18.1999 13.3305C18.1473 13.291 18.1087 13.2357 18.0896 13.1727L18.0746 13.0727V9.78017L18.0896 9.68017C18.1037 9.63279 18.1287 9.58936 18.1625 9.55333C18.1964 9.51731 18.2382 9.48969 18.2846 9.47267L18.3846 9.45767H21.9147L21.9122 9.46017ZM26.8373 9.46017L26.9348 9.47767C26.9809 9.49444 27.0225 9.52168 27.0564 9.55725C27.0902 9.59282 27.1153 9.63575 27.1298 9.68267L27.1448 9.78267V13.0702C27.1453 13.1371 27.1252 13.2026 27.0872 13.2576C27.0491 13.3126 26.995 13.3546 26.9323 13.3777L26.8348 13.3927H23.3047C23.2389 13.3919 23.1751 13.3701 23.1225 13.3305C23.0699 13.291 23.0313 13.2357 23.0122 13.1727L22.9972 13.0727V9.78017L23.0122 9.68017C23.0263 9.63279 23.0513 9.58936 23.0851 9.55333C23.119 9.51731 23.1608 9.48969 23.2072 9.47267L23.3072 9.45767H26.8348L26.8373 9.46017ZM12.087 4.73008L12.187 4.74758C12.2324 4.76442 12.2734 4.79142 12.3067 4.82652C12.3401 4.86162 12.365 4.90389 12.3795 4.95009L12.397 5.05259V8.34015C12.3975 8.40704 12.3774 8.47247 12.3394 8.52751C12.3014 8.58254 12.2473 8.6245 12.1845 8.64765L12.087 8.66515H8.55944C8.49312 8.66356 8.42902 8.64089 8.37643 8.60044C8.32385 8.55998 8.2855 8.50385 8.26694 8.44015L8.24944 8.34015V5.05259C8.24942 4.98612 8.26978 4.92124 8.30778 4.86671C8.34578 4.81217 8.39958 4.77059 8.46194 4.74758L8.55944 4.73008H12.087ZM17.0271 4.73008L17.1271 4.74758C17.1725 4.76442 17.2135 4.79142 17.2468 4.82652C17.2802 4.86162 17.3051 4.90389 17.3196 4.95009L17.3371 5.05259V8.34015C17.3376 8.40704 17.3175 8.47247 17.2795 8.52751C17.2414 8.58254 17.1874 8.6245 17.1246 8.64765L17.0271 8.66515H13.4995C13.4332 8.66356 13.3691 8.64089 13.3165 8.60044C13.2639 8.55998 13.2256 8.50385 13.207 8.44015L13.192 8.34015V5.05259L13.207 4.95259C13.2215 4.90567 13.2466 4.86273 13.2804 4.82716C13.3143 4.79159 13.3559 4.76435 13.402 4.74758L13.4995 4.73008H17.0271ZM21.9097 4.73008C22.0447 4.73008 22.1597 4.82259 22.2022 4.95009L22.2197 5.05259V8.34015C22.2202 8.40704 22.2001 8.47247 22.1621 8.52751C22.124 8.58254 22.0699 8.6245 22.0072 8.64765L21.9072 8.66515H18.3821C18.3158 8.66356 18.2517 8.64089 18.1991 8.60044C18.1465 8.55998 18.1082 8.50385 18.0896 8.44015L18.0746 8.34015V5.05259L18.0896 4.95259C18.1041 4.90567 18.1292 4.86273 18.163 4.82716C18.1969 4.79159 18.2385 4.76435 18.2846 4.74758L18.3846 4.73008H21.9147H21.9097ZM21.9097 0C22.0447 0 22.1597 0.0925018 22.2022 0.220004L22.2197 0.320006V3.61006C22.2202 3.67696 22.2001 3.74239 22.1621 3.79742C22.124 3.85246 22.0699 3.89441 22.0072 3.91757L21.9072 3.93257H18.3821C18.3163 3.93169 18.2525 3.90989 18.1999 3.87034C18.1473 3.83079 18.1087 3.77553 18.0896 3.71257L18.0746 3.61256V0.320006L18.0896 0.220004C18.1041 0.173083 18.1292 0.130151 18.163 0.0945799C18.1969 0.0590092 18.2385 0.0317693 18.2846 0.0150004L18.3821 0H21.9122H21.9097Z" fill="white"/>
</svg>
