<svg width="40" height="42" viewBox="0 0 40 42" fill="none" xmlns="http://www.w3.org/2000/svg">
<path id="Vector" d="M28.7378 0C27.1338 0.0141719 25.544 0.24221 24.0006 0.690557L23.8936 0.725342C22.9261 0.556568 21.9405 0.463807 20.9613 0.443193C18.9348 0.408408 17.1955 0.897981 15.7937 1.71737C14.4113 1.24197 11.5461 0.408408 8.52615 0.577182C6.42743 0.690557 4.13158 1.32829 2.42581 3.12683C0.735488 4.91893 -0.162493 7.69662 0.0243179 11.4818C0.0771404 12.5215 0.373461 14.2183 0.869477 16.4252C1.35905 18.627 2.0509 21.2037 2.91667 23.5588C3.78244 25.9075 4.7268 28.0204 6.20454 29.4556C6.94148 30.1732 7.96186 30.7852 9.1626 30.7324C10.0026 30.6976 10.7602 30.3291 11.4185 29.7854C11.7393 30.208 12.0833 30.3884 12.3912 30.5571C12.788 30.7723 13.1629 30.9192 13.5597 31.0145C14.2709 31.1949 15.4858 31.4306 16.9082 31.1884C17.3913 31.1073 17.9015 30.9475 18.4117 30.7259C18.4323 31.2889 18.4529 31.8455 18.4722 32.4098C18.5457 34.1877 18.5946 35.8317 19.1229 37.2746C19.2105 37.5104 19.4462 38.7176 20.3713 39.7908C21.304 40.864 23.1142 41.5287 25.1884 41.0856C26.6455 40.7763 28.5033 40.2133 29.7389 38.456C30.9602 36.7245 31.5104 34.2354 31.6186 30.1951C31.6443 29.9735 31.6791 29.7931 31.7113 29.6179L31.9999 29.645H32.0347C33.591 29.712 35.2827 29.4904 36.6986 28.832C37.9457 28.2549 38.8926 27.6712 39.5832 26.6315C39.7519 26.3751 39.9452 26.0608 39.9942 25.5235C40.047 24.994 39.7378 24.154 39.2276 23.7662C38.2085 22.9881 37.5643 23.2831 36.8725 23.4313C36.1961 23.5794 35.503 23.658 34.8124 23.6786C36.7978 20.3379 38.2201 16.7821 39.033 13.6398C39.5162 11.7807 39.7854 10.0698 39.8048 8.57398C39.8318 7.07821 39.7056 5.75636 38.8115 4.60972C36.0067 1.03326 32.0669 0.0386506 29.0213 0.00644176C28.9272 0.00644176 28.8345 0.00644176 28.7391 0.00644176L28.7378 0ZM28.6567 1.10154C31.5361 1.07449 35.2182 1.87971 37.8619 5.26034C38.4597 6.01918 38.6349 7.12588 38.6143 8.49539C38.5937 9.86491 38.3399 11.4947 37.8761 13.2868C36.9846 16.764 35.2852 20.8017 32.9044 24.4336C32.9855 24.4942 33.0783 24.547 33.1723 24.5818C33.6683 24.7892 34.8021 24.9631 37.0696 24.5006C37.6403 24.3782 38.0578 24.2996 38.4932 24.6281C38.7084 24.8085 38.8218 25.0778 38.8076 25.3599C38.7818 25.5674 38.7084 25.7683 38.5795 25.9371C38.1428 26.5929 37.2796 27.219 36.1716 27.7356C35.1925 28.1904 33.7817 28.4262 32.5423 28.4404C31.9123 28.4468 31.3351 28.3991 30.843 28.2445L30.8172 28.2394C30.6278 30.0573 30.1937 33.6543 29.9102 35.2905C29.6835 36.6111 29.2867 37.6663 28.5291 38.4509C27.7703 39.2432 26.7035 39.7122 25.2606 40.0214C23.4762 40.404 22.1801 39.9943 21.3427 39.2896C20.5053 38.5849 20.1213 37.6457 19.8933 37.0749C19.7335 36.6794 19.6524 36.1692 19.5725 35.4838C19.4913 34.7997 19.4385 33.9674 19.3973 33.0218C19.3444 31.5788 19.3238 30.1358 19.3444 28.6865C18.6011 29.3719 17.6747 29.8202 16.6801 29.9954C15.4936 30.1964 14.4397 29.9954 13.8097 29.8408C13.5005 29.7596 13.1977 29.6463 12.9169 29.4917C12.6218 29.3371 12.3461 29.1631 12.1593 28.8127C12.0511 28.6117 12.0189 28.3785 12.0653 28.1569C12.1181 27.9289 12.2521 27.7344 12.435 27.5862C12.7764 27.3092 13.2274 27.1572 13.9037 27.0155C15.1393 26.7591 15.5747 26.5864 15.8363 26.3764C16.0579 26.2025 16.3142 25.8405 16.7549 25.3097C16.7549 25.2904 16.7549 25.2633 16.7484 25.2427C15.9509 25.2169 15.1715 25.0095 14.4667 24.6256C14.2129 24.8935 12.8898 26.2901 11.2871 28.2226C10.6159 29.0266 9.87119 29.4904 9.08015 29.5252C8.29554 29.5574 7.58179 29.1631 6.97884 28.5782C5.77166 27.4033 4.80411 25.3831 3.96539 23.1014C3.12667 20.8198 2.449 18.2779 1.95942 16.1173C1.47629 13.949 1.1877 12.2046 1.14647 11.3658C0.966103 7.78938 1.80482 5.38145 3.24005 3.85733C4.67527 2.33321 6.64258 1.76375 8.56223 1.65038C12.0047 1.45584 15.2784 2.65658 15.9368 2.91168C17.2109 2.0459 18.8549 1.50995 20.9085 1.54216C21.8825 1.55633 22.8475 1.68259 23.7944 1.91836L23.8292 1.89774C24.2453 1.75731 24.6679 1.62977 25.0969 1.537C26.2655 1.26001 27.4585 1.11958 28.6528 1.10025L28.6567 1.10154ZM28.9182 2.24817H28.6644C27.6852 2.25977 26.6971 2.37572 25.7385 2.58315C27.8785 3.53009 29.4954 4.98463 30.6356 6.4482C31.4279 7.45441 32.0785 8.5611 32.5745 9.74252C32.7704 10.1999 32.8979 10.5812 32.9649 10.8763C33.0048 11.0244 33.0255 11.1507 33.0383 11.2782C33.0383 11.3452 33.0448 11.4135 33.0113 11.5269C33.0113 11.5333 33.0048 11.5475 33.0048 11.5539C33.0602 13.0575 32.684 14.0752 32.6351 15.5118C32.6029 16.5527 32.8709 17.7741 32.9379 19.1088C32.9984 20.3624 32.8451 21.7384 32.0321 23.0937C32.0991 23.1749 32.1597 23.2548 32.2267 23.3424C34.3808 19.9463 35.9371 16.1959 36.763 12.9943C37.2062 11.2692 37.4394 9.70645 37.46 8.47349C37.4806 7.23796 37.2525 6.33869 36.9562 5.96378C34.6475 3.01732 31.5284 2.26492 28.9169 2.24689L28.9182 2.24817ZM20.6843 2.69008C18.659 2.69652 17.2019 3.30849 16.0965 4.22708C14.9537 5.18046 14.1898 6.47526 13.6937 7.80999C13.0959 9.38693 12.8885 10.9162 12.8073 11.9572L12.8344 11.943C13.4464 11.6016 14.2503 11.2525 15.1161 11.0579C15.9754 10.8557 16.9082 10.7951 17.7456 11.1249C18.5921 11.4457 19.2826 12.2174 19.5377 13.3782C20.7475 18.9749 19.1628 21.0555 18.5792 22.6248C18.3576 23.1955 18.163 23.7727 18.0084 24.3627C18.0819 24.3486 18.1566 24.328 18.23 24.3215C18.6462 24.2893 18.967 24.4233 19.1563 24.5032C19.7477 24.7505 20.1497 25.2607 20.3713 25.8443C20.4241 25.9989 20.464 26.1587 20.4911 26.3339C20.5117 26.4009 20.5259 26.4744 20.5259 26.5491C20.4589 28.689 20.464 30.8303 20.5452 32.9702C20.5864 33.8965 20.647 34.7082 20.7204 35.3524C20.7938 35.9901 20.8943 36.4797 20.9626 36.6472C21.1829 37.1973 21.505 37.9149 22.0899 38.4045C22.6671 38.8954 23.4981 39.2174 25.0222 38.8954C26.3428 38.6068 27.1557 38.2164 27.6981 37.6534C28.2431 37.0826 28.5639 36.298 28.7713 35.0973C29.087 33.2923 29.7105 28.0577 29.7853 27.0786C29.753 26.3326 29.8587 25.7632 30.1009 25.3264C30.3418 24.8832 30.718 24.6088 31.0478 24.4607C31.2076 24.3872 31.3622 24.3408 31.4897 24.2996C31.3558 24.1128 31.2153 23.9247 31.0736 23.743C30.6046 23.1723 30.2143 22.5359 29.9257 21.8582C29.7917 21.5747 29.6435 21.2926 29.4825 21.0246C29.2557 20.6162 28.9672 20.0983 28.6644 19.5147C28.0602 18.3603 27.4031 16.9521 27.0604 15.5826C26.719 14.2131 26.6726 12.7985 27.5448 11.8052C28.3165 10.9188 29.6783 10.5516 31.7101 10.759C31.6495 10.5774 31.6173 10.4228 31.5155 10.1883C31.053 9.10092 30.4488 8.08055 29.7234 7.15422C27.9983 4.94727 25.2 2.75836 20.8866 2.68493L20.6843 2.69008ZM9.27855 2.77769C9.0634 2.77769 8.8418 2.78413 8.62793 2.7983C6.88995 2.90008 5.25245 3.40125 4.07747 4.64322C2.90379 5.89163 2.13335 7.92465 2.29955 11.3001C2.33433 11.9443 2.60875 13.7287 3.08415 15.8558C3.56213 17.9841 4.23852 20.4874 5.05147 22.7008C5.86184 24.9077 6.84357 26.8338 7.78277 27.746C8.25174 28.1956 8.66014 28.3837 9.0299 28.3708C9.39966 28.3502 9.84929 28.135 10.3994 27.478C11.3992 26.2708 12.4337 25.1023 13.5069 23.9621C11.9622 22.6132 11.2046 20.575 11.5074 18.5471C11.6813 17.2794 11.7084 16.0902 11.6813 15.151C11.662 14.2389 11.6002 13.6359 11.6002 13.2533C11.6002 13.2391 11.6002 13.2327 11.6002 13.2185V13.2121L11.5937 13.2005C11.5937 11.2203 11.9442 9.26196 12.6141 7.40287C13.0972 6.11967 13.8097 4.82617 14.8816 3.77101C13.829 3.42186 11.9557 2.90008 9.93046 2.7983C9.7153 2.78413 9.49242 2.77769 9.27855 2.77769ZM30.575 11.849C29.4091 11.8696 28.7571 12.1724 28.4093 12.5601C27.9249 13.118 27.8785 14.0972 28.1813 15.3056C28.4814 16.5128 29.1076 17.8617 29.6912 18.9839C29.9798 19.5469 30.2619 20.0506 30.4887 20.459C30.7245 20.8752 30.892 21.1638 30.9924 21.4189C31.0865 21.6469 31.1947 21.8479 31.3016 22.036C31.7513 21.0826 31.8324 20.1498 31.7848 19.1707C31.7242 17.9635 31.4434 16.728 31.4897 15.4808C31.5374 14.0173 31.826 13.0639 31.8466 11.9366C31.4292 11.8838 31.0002 11.849 30.5776 11.849H30.575ZM16.4315 12.0525C16.0759 12.0525 15.7203 12.0989 15.3712 12.1801C14.6793 12.3489 14.0158 12.6027 13.391 12.9518C13.1835 13.0652 12.9826 13.194 12.7945 13.3422L12.7532 13.3744C12.7674 13.6308 12.8138 14.2337 12.8344 15.133C12.855 16.1121 12.8344 17.3593 12.6476 18.7095C12.2315 21.6482 14.365 24.078 16.8682 24.0845C17.0164 23.4802 17.256 22.8683 17.4982 22.2254C18.1952 20.3457 19.5648 18.9774 18.4104 13.623C18.2236 12.7508 17.8474 12.3952 17.3295 12.1943C17.0409 12.0925 16.7407 12.0461 16.4315 12.0538V12.0525ZM30.0326 12.4004H30.1202C30.2272 12.4068 30.3354 12.4146 30.4281 12.4403C30.5157 12.4609 30.5969 12.488 30.6639 12.5344C30.7309 12.5743 30.7773 12.6413 30.7915 12.7212V12.7354C30.7915 12.8165 30.7708 12.8964 30.7309 12.9711C30.6781 13.0639 30.6175 13.1515 30.5441 13.2249C30.3689 13.4195 30.1331 13.5483 29.8793 13.587C29.6307 13.6217 29.3833 13.5548 29.1746 13.413C29.0934 13.3512 29.0135 13.2842 28.953 13.2108C28.8924 13.1502 28.8589 13.0703 28.8448 12.9892C28.8396 12.9106 28.8589 12.8294 28.9118 12.7689C28.9736 12.707 29.0406 12.6542 29.114 12.6143C29.2802 12.5202 29.5018 12.4532 29.7582 12.4184C29.851 12.4068 29.945 12.3991 30.0326 12.3927V12.4004ZM16.5977 12.689C16.6853 12.689 16.7871 12.6954 16.8811 12.7083C17.1491 12.7495 17.3771 12.8165 17.5575 12.9235C17.6451 12.9647 17.7263 13.0317 17.7855 13.1051C17.8525 13.1863 17.8847 13.2855 17.8796 13.3937C17.859 13.4929 17.8178 13.5883 17.7508 13.6617C17.6773 13.7493 17.5974 13.8227 17.5034 13.8833C17.2818 14.0443 17.0074 14.1113 16.7317 14.0778C16.4547 14.0314 16.2009 13.8975 16.0141 13.69C15.9329 13.6024 15.8659 13.5084 15.8118 13.4079C15.7512 13.3138 15.7255 13.2069 15.7383 13.0987C15.7654 12.9183 15.92 12.8165 16.0682 12.7637C16.2369 12.7083 16.4173 12.6903 16.5977 12.6967V12.689ZM32.1597 25.3032H32.1532C31.9059 25.3973 31.6985 25.4321 31.5232 25.5132C31.3429 25.5802 31.1999 25.7142 31.1148 25.8804C31.0002 26.0762 30.9139 26.4254 30.9396 27.0206C31.0131 27.076 31.1007 27.1147 31.196 27.143C31.4846 27.2306 31.9806 27.2912 32.5307 27.2834C33.6245 27.2693 34.9734 27.0155 35.6911 26.6792C36.2747 26.4112 36.8248 26.0492 37.3079 25.6266C34.9129 26.1162 33.5653 25.9886 32.7317 25.6472C32.5307 25.5596 32.3349 25.445 32.1597 25.3032ZM18.364 25.4643H18.3292C18.2365 25.4707 18.1076 25.5055 17.8461 25.7877C17.2483 26.4576 17.0409 26.8802 16.5513 27.2706C16.0553 27.6661 15.4176 27.8748 14.1356 28.1363C13.7337 28.2175 13.4979 28.3103 13.3433 28.3837C13.3897 28.4249 13.3897 28.4391 13.4631 28.4713C13.6525 28.5795 13.8921 28.6671 14.088 28.7199C14.6381 28.8539 15.5361 29.015 16.483 28.8539C17.4222 28.6929 18.4014 28.242 19.2414 27.0696C19.3895 26.8686 19.4011 26.5658 19.2813 26.2437C19.1615 25.9294 18.8987 25.6472 18.7183 25.5738C18.6036 25.5184 18.4825 25.4862 18.3627 25.4656L18.364 25.4643Z" fill="white"/>
</svg>
