<svg viewBox="0 0 25 25" fill="none" xmlns="http://www.w3.org/2000/svg">
<path d="M17.7083 10.4167C20.0095 10.4167 21.875 12.2821 21.875 14.5833V19.7917C21.875 20.9423 20.9423 21.875 19.7917 21.875H5.20833C4.05774 21.875 3.125 20.9423 3.125 19.7917V14.5833C3.125 12.2821 4.99048 10.4167 7.29167 10.4167C7.29167 8.33333 7.29167 7.29167 7.29167 7.29167C7.29167 7.29167 7.98611 7.29167 9.375 7.29167V10.4167H11.4583C11.4583 8.33333 11.4583 7.29167 11.4583 7.29167C11.4583 7.29167 12.1528 7.29167 13.5417 7.29167V10.4167H15.625C15.625 8.33333 15.625 7.29167 15.625 7.29167C15.625 7.29167 16.3194 7.29167 17.7083 7.29167V10.4167ZM7.29167 12.5C6.14107 12.5 5.20833 13.4327 5.20833 14.5833V15.625H19.7917V14.5833C19.7917 13.4327 18.8589 12.5 17.7083 12.5H7.29167ZM5.20833 17.7083V19.7917H19.7917V17.7083H5.20833ZM7.29167 4.16667C7.86696 4.16667 8.33333 3.7003 8.33333 3.125C8.90863 3.125 9.375 3.59137 9.375 4.16667V5.20833C9.375 5.78363 8.90863 6.25 8.33333 6.25C7.75804 6.25 7.29167 5.78363 7.29167 5.20833V4.16667ZM11.4583 4.16667C12.0336 4.16667 12.5 3.7003 12.5 3.125C13.0753 3.125 13.5417 3.59137 13.5417 4.16667V5.20833C13.5417 5.78363 13.0753 6.25 12.5 6.25C11.9247 6.25 11.4583 5.78363 11.4583 5.20833V4.16667ZM15.625 4.16667C16.2003 4.16667 16.6667 3.7003 16.6667 3.125C17.242 3.125 17.7083 3.59137 17.7083 4.16667V5.20833C17.7083 5.78363 17.242 6.25 16.6667 6.25C16.0914 6.25 15.625 5.78363 15.625 5.20833V4.16667Z" fill="white"/>
</svg>
