<svg viewBox="0 0 25 25" fill="none" xmlns="http://www.w3.org/2000/svg">
<path fill-rule="evenodd" clip-rule="evenodd" d="M4.16671 12.5C4.16671 7.89762 7.89766 4.16666 12.5 4.16666C13.0754 4.16666 13.5417 3.70029 13.5417 3.12499C13.5417 2.5497 13.0754 2.08333 12.5 2.08333C6.74707 2.08333 2.08337 6.74703 2.08337 12.5C2.08337 18.2529 6.74707 22.9167 12.5 22.9167C15.3762 22.9167 17.9818 21.7496 19.8658 19.8657C20.2725 19.4588 20.2725 18.7994 19.8658 18.3926C19.4589 17.9857 18.7994 17.9857 18.3926 18.3926C16.8834 19.9018 14.8015 20.8333 12.5 20.8333C7.89766 20.8333 4.16671 17.1024 4.16671 12.5ZM13.5417 6.24999C13.5417 5.6747 13.0754 5.20833 12.5 5.20833C11.9247 5.20833 11.4584 5.6747 11.4584 6.24999V12.5C11.4584 12.7762 11.5682 13.0412 11.7635 13.2366L14.8885 16.3616C15.2952 16.7683 15.9548 16.7683 16.3616 16.3616C16.7684 15.9548 16.7684 15.2952 16.3616 14.8884L13.5417 12.0685V6.24999ZM22.6545 15.7994C22.4323 16.4833 21.6977 16.8576 21.0138 16.6354C20.3299 16.4131 19.9557 15.6785 20.1779 14.9947C20.4 14.3107 21.1346 13.9365 21.8186 14.1586C22.5024 14.3809 22.8768 15.1154 22.6545 15.7994ZM21.9633 12.3195C22.6736 12.207 23.1582 11.54 23.0457 10.8298C22.9332 10.1195 22.2662 9.63489 21.556 9.74739C20.8457 9.85988 20.3611 10.5269 20.4736 11.2372C20.5861 11.9474 21.2531 12.432 21.9633 12.3195ZM21.138 6.22418C21.5607 6.80596 21.4317 7.62024 20.8499 8.04293C20.2682 8.46562 19.4539 8.33665 19.0312 7.75487C18.6085 7.17309 18.7374 6.35881 19.3192 5.93612C19.901 5.51343 20.7154 5.6424 21.138 6.22418ZM17.9164 4.73795C18.2429 4.09721 17.9881 3.31313 17.3473 2.98665C16.7066 2.66018 15.9225 2.91494 15.5961 3.55568C15.2696 4.19643 15.5243 4.98051 16.1651 5.30698C16.8059 5.63345 17.5899 5.37869 17.9164 4.73795Z" fill="white"/>
</svg>
