<svg viewBox="0 0 25 25" fill="none" xmlns="http://www.w3.org/2000/svg">
<path d="M11.5385 18.9103C11.5385 19.4413 11.969 19.8718 12.5 19.8718C13.031 19.8718 13.4615 19.4413 13.4615 18.9103H11.5385ZM13.4615 9.9359C13.4615 9.40486 13.031 8.97436 12.5 8.97436C11.969 8.97436 11.5385 9.40486 11.5385 9.9359H13.4615ZM11.5385 6.10251C11.5385 6.63356 11.969 7.06405 12.5 7.06405C13.031 7.06405 13.4615 6.63356 13.4615 6.10251H11.5385ZM13.4615 6.08971C13.4615 5.55867 13.031 5.12817 12.5 5.12817C11.969 5.12817 11.5385 5.55867 11.5385 6.08971H13.4615ZM2.18515 10.1487C2.30267 9.6308 1.97812 9.11571 1.46023 8.99819C0.942359 8.88068 0.427269 9.20524 0.309756 9.72313L2.18515 10.1487ZM4.16642 3.18312C3.77073 3.53727 3.73705 4.14515 4.09122 4.54086C4.44537 4.93655 5.05326 4.97023 5.44896 4.61606L4.16642 3.18312ZM13.4615 18.9103V9.9359H11.5385V18.9103H13.4615ZM13.4615 6.10251V6.08971H11.5385V6.10251H13.4615ZM23.0769 12.5C23.0769 18.3414 18.3414 23.0769 12.5 23.0769V25C19.4036 25 25 19.4036 25 12.5H23.0769ZM12.5 23.0769C6.65853 23.0769 1.92308 18.3414 1.92308 12.5H0C0 19.4036 5.59644 25 12.5 25V23.0769ZM12.5 1.92308C18.3414 1.92308 23.0769 6.65853 23.0769 12.5H25C25 5.59644 19.4036 0 12.5 0V1.92308ZM1.92308 12.5C1.92308 11.6908 2.01377 10.904 2.18515 10.1487L0.309756 9.72313C0.106897 10.6171 0 11.5467 0 12.5H1.92308ZM5.44896 4.61606C7.32085 2.94068 9.79045 1.92308 12.5 1.92308V0C9.29914 0 6.37728 1.20436 4.16642 3.18312L5.44896 4.61606Z" fill="white"/>
</svg>
