<svg viewBox="0 0 25 25" fill="none" xmlns="http://www.w3.org/2000/svg">
<g clip-path="url(#clip0_589_233)">
<path d="M24.2188 5.46875H0.78125C0.57405 5.46875 0.375336 5.55106 0.228823 5.69757C0.08231 5.84409 0 6.0428 0 6.25L0 18.75C0 18.9572 0.08231 19.1559 0.228823 19.3024C0.375336 19.4489 0.57405 19.5312 0.78125 19.5312H24.2188C24.426 19.5312 24.6247 19.4489 24.7712 19.3024C24.9177 19.1559 25 18.9572 25 18.75V6.25C25 6.0428 24.9177 5.84409 24.7712 5.69757C24.6247 5.55106 24.426 5.46875 24.2188 5.46875ZM19.6016 17.9688H5.39844C5.23561 17.0106 4.77899 16.1267 4.09175 15.4395C3.40452 14.7523 2.52066 14.2956 1.5625 14.1328V10.8672C2.52066 10.7044 3.40452 10.2477 4.09175 9.5605C4.77899 8.87327 5.23561 7.98941 5.39844 7.03125H19.6016C19.7644 7.98941 20.221 8.87327 20.9082 9.5605C21.5955 10.2477 22.4793 10.7044 23.4375 10.8672V14.1328C22.4793 14.2956 21.5955 14.7523 20.9082 15.4395C20.221 16.1267 19.7644 17.0106 19.6016 17.9688ZM23.4375 9.26562C22.9001 9.12534 22.4098 8.84438 22.0171 8.45166C21.6244 8.05893 21.3434 7.56864 21.2031 7.03125H23.4375V9.26562ZM3.79688 7.03125C3.65659 7.56864 3.37563 8.05893 2.98291 8.45166C2.59018 8.84438 2.09989 9.12534 1.5625 9.26562V7.03125H3.79688ZM1.5625 15.7344C2.09989 15.8747 2.59018 16.1556 2.98291 16.5483C3.37563 16.9411 3.65659 17.4314 3.79688 17.9688H1.5625V15.7344ZM21.2031 17.9688C21.3434 17.4314 21.6244 16.9411 22.0171 16.5483C22.4098 16.1556 22.9001 15.8747 23.4375 15.7344V17.9688H21.2031Z" fill="white"/>
<path d="M5.86719 0.554688C5.77823 0.503256 5.67999 0.469881 5.5781 0.456475C5.47622 0.443069 5.37269 0.449895 5.27344 0.476563C5.07329 0.528559 4.90191 0.657794 4.79688 0.835938L3.23438 3.51563C3.13078 3.69589 3.10303 3.90993 3.15724 4.11065C3.21145 4.31137 3.34318 4.48234 3.52344 4.58594C3.70371 4.68954 3.91775 4.71729 4.11847 4.66308C4.31919 4.60887 4.49016 4.47714 4.59376 4.29688L5.76563 2.29688L9.72657 4.58594C9.90683 4.68954 10.1209 4.71729 10.3216 4.66308C10.5223 4.60887 10.6933 4.47714 10.7969 4.29688C10.9005 4.11661 10.9282 3.90258 10.874 3.70185C10.8198 3.50113 10.6881 3.33016 10.5078 3.22656L5.86719 0.554688Z" fill="white"/>
<path d="M19.1328 24.4453C19.2511 24.5155 19.3859 24.5533 19.5234 24.5547C19.5907 24.5661 19.6593 24.5661 19.7266 24.5547C19.9267 24.5027 20.0981 24.3735 20.2031 24.1953L21.7656 21.5156C21.8692 21.3354 21.897 21.1213 21.8428 20.9206C21.7886 20.7199 21.6568 20.5489 21.4766 20.4453C21.2963 20.3417 21.0823 20.314 20.8815 20.3682C20.6808 20.4224 20.5099 20.5541 20.4063 20.7344L19.25 22.7344L15.2891 20.4453C15.1088 20.3417 14.8948 20.314 14.694 20.3682C14.4933 20.4224 14.3224 20.5541 14.2188 20.7344C14.1152 20.9146 14.0874 21.1287 14.1416 21.3294C14.1958 21.5301 14.3276 21.7011 14.5078 21.8047L19.1328 24.4453Z" fill="white"/>
<path d="M12.5 7.8125C11.5729 7.8125 10.6666 8.08742 9.89577 8.60249C9.12491 9.11756 8.5241 9.84964 8.16932 10.7062C7.81453 11.5627 7.7217 12.5052 7.90257 13.4145C8.08344 14.3238 8.52988 15.159 9.18544 15.8146C9.841 16.4701 10.6762 16.9166 11.5855 17.0974C12.4948 17.2783 13.4373 17.1855 14.2938 16.8307C15.1504 16.4759 15.8824 15.8751 16.3975 15.1042C16.9126 14.3334 17.1875 13.4271 17.1875 12.5C17.1875 11.2568 16.6936 10.0645 15.8146 9.18544C14.9355 8.30636 13.7432 7.8125 12.5 7.8125ZM12.5 15.625C11.8819 15.625 11.2777 15.4417 10.7638 15.0983C10.2499 14.755 9.8494 14.2669 9.61288 13.6959C9.37635 13.1249 9.31447 12.4965 9.43505 11.8903C9.55563 11.2842 9.85325 10.7273 10.2903 10.2903C10.7273 9.85325 11.2842 9.55562 11.8903 9.43505C12.4965 9.31447 13.1249 9.37635 13.6959 9.61288C14.2669 9.8494 14.755 10.2499 15.0983 10.7638C15.4417 11.2777 15.625 11.8819 15.625 12.5C15.625 13.3288 15.2958 14.1237 14.7097 14.7097C14.1237 15.2958 13.3288 15.625 12.5 15.625Z" fill="white"/>
</g>
<defs>
<clipPath id="clip0_589_233">
<rect width="25" height="25" fill="white"/>
</clipPath>
</defs>
</svg>
