<svg  viewBox="0 0 25 25" xmlns="http://www.w3.org/2000/svg">
<path d="M22.371 19.7371C21.4467 18.094 19.9328 16.233 17.4683 15.175C16.0587 16.1612 14.3463 16.7418 12.5002 16.7418C10.6532 16.7418 8.94076 16.1612 7.53114 15.175C5.06659 16.233 3.55267 18.0941 2.6289 19.7371C1.40287 21.9164 2.3641 25 4.48446 25C6.60487 25 12.5003 25 12.5003 25C12.5003 25 18.3951 25 20.5156 25C22.6359 25 23.5971 21.9164 22.371 19.7371Z" fill="white"/>
<path d="M12.5002 14.6797C16.1205 14.6797 19.0545 11.7448 19.0545 8.12495V6.55474C19.0545 2.93496 16.1205 0 12.5002 0C8.87937 0 5.94495 2.93496 5.94495 6.55479V8.125C5.94495 11.7448 8.87942 14.6797 12.5002 14.6797Z" fill="white"/>
</svg>
