<svg  viewBox="0 0 25 25" fill="none" xmlns="http://www.w3.org/2000/svg">
<path d="M5.20833 21.875H19.7917C20.3437 21.8734 20.8726 21.6533 21.263 21.263C21.6533 20.8726 21.8734 20.3437 21.875 19.7917V9.375C21.8734 8.82297 21.6533 8.29403 21.263 7.90368C20.8726 7.51334 20.3437 7.29332 19.7917 7.29167H17.7083V5.20833C17.7083 4.6558 17.4888 4.12589 17.0981 3.73519C16.7074 3.34449 16.1775 3.125 15.625 3.125H9.375C8.82247 3.125 8.29256 3.34449 7.90186 3.73519C7.51116 4.12589 7.29167 4.6558 7.29167 5.20833V7.29167H5.20833C4.65631 7.29332 4.12736 7.51334 3.73702 7.90368C3.34667 8.29403 3.12665 8.82297 3.125 9.375V19.7917C3.12665 20.3437 3.34667 20.8726 3.73702 21.263C4.12736 21.6533 4.65631 21.8734 5.20833 21.875ZM9.375 5.72917C9.375 5.59103 9.42987 5.45856 9.52755 5.36088C9.62522 5.26321 9.7577 5.20833 9.89583 5.20833H15.1042C15.2423 5.20833 15.3748 5.26321 15.4725 5.36088C15.5701 5.45856 15.625 5.59103 15.625 5.72917V7.29167H9.375V5.72917Z" fill="white"/>
</svg>
