<svg width="40" height="36" viewBox="0 0 40 36" fill="none" xmlns="http://www.w3.org/2000/svg">
<path id="Vector" d="M17.7493 26.0972C18.4829 26.1305 19.2324 26.1545 19.9913 26.1545C20.7582 26.1545 21.5158 26.1385 22.2587 26.0972C21.5158 27.0575 20.7822 27.907 20.006 28.7166L20.0167 28.7059C19.2444 27.9057 18.5029 27.0548 17.804 26.1692L17.7493 26.0972ZM10.1497 25.0302C11.5941 25.3969 13.356 25.709 15.1539 25.9011L15.3286 25.9158C16.4289 27.4269 17.5413 28.7566 18.735 30.0077L18.7203 29.9917C16.9718 31.9429 14.6124 33.314 11.9436 33.8061L11.8702 33.8168C11.8649 33.8168 11.8596 33.8168 11.8542 33.8168C11.5235 33.8168 11.2114 33.7355 10.9379 33.5914L10.9486 33.5967C9.83895 32.9632 9.35747 30.5398 9.73225 27.4256C9.82161 26.6587 9.96832 25.8518 10.1484 25.0288L10.1497 25.0302ZM29.8663 25.0128C30.0237 25.645 30.1717 26.4506 30.2771 27.2695L30.2891 27.3842C30.6719 30.4972 30.1997 32.9179 29.0994 33.5647C28.854 33.7008 28.5606 33.7808 28.2485 33.7808C28.2178 33.7808 28.1871 33.7795 28.1564 33.7781H28.1604C25.4223 33.278 23.0643 31.9162 21.3197 29.989L21.3104 29.9783C22.4827 28.7473 23.5871 27.4202 24.5994 26.0238L24.6767 25.9118C26.6453 25.7064 28.4099 25.3889 30.129 24.9555L29.8663 25.0115V25.0128ZM11.7088 20.0353C12.0423 20.6889 12.3917 21.3397 12.7758 21.9933C13.1591 22.6432 13.5507 23.2781 13.9509 23.8978C12.7932 23.7285 11.6755 23.5151 10.6072 23.255C10.9073 22.2053 11.2834 21.1183 11.7075 20.0327L11.7088 20.0353ZM28.2845 20.002C28.726 21.097 29.1007 22.1893 29.4115 23.2483C28.3445 23.5097 27.2175 23.7311 26.0518 23.8978C26.4519 23.2723 26.8521 22.6281 27.2268 21.9679C27.6016 21.3184 27.9524 20.6542 28.2872 20.0007L28.2845 20.002ZM8.82131 12.8679C9.40282 14.8391 10.027 16.4876 10.7539 18.0774L10.6539 17.8347C10.0323 19.1751 9.41749 20.8142 8.91334 22.5014L8.84399 22.7748C7.90237 22.4854 7.14481 22.2013 6.40726 21.8826L6.56063 21.9412C3.67444 20.7129 1.80721 19.0977 1.80721 17.8173C1.80721 16.537 3.67444 14.9138 6.56063 13.6908C7.26084 13.3907 8.02908 13.1199 8.82131 12.8679ZM31.1467 12.8612C31.9536 13.1106 32.7205 13.3894 33.438 13.6908C36.3242 14.9245 38.1915 16.537 38.1915 17.8173C38.1835 19.0977 36.3162 20.7169 33.43 21.9426C32.7298 22.2427 31.9629 22.5121 31.172 22.7642C30.5852 20.7862 29.961 19.1391 29.2368 17.5466L29.3381 17.7973C29.957 16.4583 30.5732 14.8191 31.076 13.1319L31.1467 12.8572V12.8612ZM26.0411 11.7369C27.2002 11.9089 28.3165 12.1196 29.3848 12.3824C29.0847 13.436 28.7099 14.519 28.2845 15.6047C27.9511 14.9552 27.6016 14.3003 27.2175 13.6481C26.8427 12.9946 26.4426 12.3584 26.0425 11.7382L26.0411 11.7369ZM13.9415 11.7369C13.5414 12.365 13.1413 13.0079 12.7678 13.6708C12.3931 14.3203 12.0423 14.9738 11.7088 15.6274C11.2674 14.5337 10.8926 13.444 10.5818 12.3824C11.6488 12.133 12.7732 11.9102 13.9402 11.7395L13.9415 11.7369ZM19.9993 11.3127C21.233 11.3127 22.4614 11.3687 23.6698 11.4674C24.3464 12.4375 25.0035 13.4707 25.641 14.567C26.2608 15.634 26.8263 16.7152 27.3375 17.8107C26.824 18.903 26.2612 19.994 25.649 21.061C25.0155 22.1613 24.3606 23.2083 23.6818 24.1779C22.4681 24.2833 21.2384 24.3406 19.998 24.3406C18.7643 24.3406 17.5359 24.2819 16.3276 24.1859C15.6514 23.2163 14.9912 22.1787 14.3563 21.0863C13.7366 20.0193 13.1711 18.9381 12.6598 17.8427C13.1653 16.7477 13.7361 15.654 14.3483 14.5857C14.9818 13.4854 15.6367 12.4424 16.3156 11.4728C17.5293 11.3661 18.759 11.3101 19.9993 11.3101V11.3127ZM19.974 6.93675C20.7476 7.73699 21.4891 8.58658 22.1867 9.47218L22.24 9.54286C21.5065 9.50952 20.7569 9.48685 19.998 9.48685C19.2311 9.48685 18.4735 9.50285 17.7307 9.54286C18.4722 8.58257 19.2058 7.73299 19.9833 6.92341L19.9727 6.93408L19.974 6.93675ZM11.8369 1.85256C14.575 2.35404 16.9317 3.71578 18.6776 5.64169L18.6869 5.65236C17.5146 6.88473 16.4103 8.2118 15.398 9.61088L15.3206 9.72292C13.3533 9.92698 11.5888 10.2417 9.87096 10.6752L10.1324 10.6192C9.94565 9.80294 9.80694 9.01204 9.70958 8.25314C9.3268 5.14021 9.79894 2.71948 10.8993 2.07529C11.174 1.94592 11.4954 1.86589 11.8342 1.85522H11.8382L11.8369 1.85256ZM28.1218 1.81921V1.82988C28.1391 1.82988 28.1591 1.82855 28.1805 1.82855C28.4992 1.82855 28.7993 1.90724 29.0634 2.04595L29.0527 2.04061C30.1624 2.6768 30.6439 5.09886 30.2691 8.21446C30.1797 8.98136 30.033 9.7896 29.853 10.6139C28.4059 10.2431 26.644 9.92965 24.8461 9.73892L24.6754 9.72425C23.5737 8.2118 22.4614 6.88206 21.2677 5.62969L21.2837 5.64569C23.0322 3.69844 25.3876 2.32736 28.0511 1.83255L28.1258 1.82055L28.1218 1.81921ZM28.1298 0.00266727C24.8728 0.497482 22.0533 2.07929 19.994 4.36131L19.9833 4.37331C17.9094 2.09263 15.0899 0.52149 11.9129 0.0453468L11.8382 0.0360107C11.8209 0.0360107 11.7995 0.0360107 11.7782 0.0360107C11.1233 0.0360107 10.5085 0.208062 9.97633 0.509486L9.995 0.50015C7.70364 1.82188 7.19016 5.94045 8.37318 11.1087C3.29966 12.6758 0 15.1806 0 17.82C0 20.4701 3.317 22.9816 8.40519 24.5367C7.2315 29.7249 7.75566 33.8502 10.0523 35.1705C10.5565 35.46 11.162 35.6294 11.8062 35.6294C11.8356 35.6294 11.8649 35.6294 11.8929 35.628H11.8889C15.1459 35.1332 17.9654 33.5501 20.0247 31.2667L20.0353 31.2547C22.1093 33.5367 24.9288 35.1079 28.1058 35.584L28.1805 35.5933C28.2005 35.5933 28.2258 35.5933 28.2498 35.5933C28.9007 35.5933 29.5129 35.4226 30.0423 35.1252L30.0237 35.1345C32.3137 33.8141 32.8285 29.6956 31.6455 24.526C36.7003 22.9722 40 20.4621 40 17.8187C40 15.1685 36.683 12.6571 31.5948 11.098C32.7685 5.91511 32.2443 1.78587 29.9477 0.464139C29.4382 0.172052 28.8273 0 28.1765 0C28.1591 0 28.1418 0 28.1244 0H28.1271L28.1298 0.00266727ZM23.7165 17.82C23.7165 19.878 22.0479 21.5465 19.99 21.5465C17.932 21.5465 16.2635 19.878 16.2635 17.82C16.2635 15.7621 17.932 14.0936 19.99 14.0936C21.0196 14.0936 21.9506 14.511 22.6255 15.1846C23.3003 15.8594 23.7165 16.7904 23.7165 17.82Z" fill="white"/>
</svg>
