<svg width="40" height="45" viewBox="0 0 40 45" fill="none" xmlns="http://www.w3.org/2000/svg">
<path id="Vector" d="M40 0L36.2494 40.6245L19.9997 44.9998L3.7498 40.6245L0 0H40ZM32.4424 8.26037H19.9851H7.30718L7.91349 13.1662H19.9851H20.6632L19.9851 13.4484L8.35468 18.2924L8.7404 23.0877L19.9851 23.1241L26.012 23.1432L25.6261 29.5371L19.985 31.1253V31.1203L19.9388 31.1331L14.4909 29.7579L14.1603 25.7889H14.1422H9.08904H9.07125L9.73269 33.451L19.9852 36.4829V36.4774L20.0037 36.4829L30.2013 33.5062L31.5241 18.2924H19.9852H19.9568L19.9852 18.28L31.9468 13.1662L32.4424 8.26037Z" fill="white"/>
</svg>
