<svg width="27" height="39" viewBox="0 0 27 39" fill="none" xmlns="http://www.w3.org/2000/svg">
<path id="Vector" fill-rule="evenodd" clip-rule="evenodd" d="M8.25805 0C5.67495 0 3.58632 0.867517 2.13857 2.30875C0.706084 3.73453 0 5.62743 0 7.5C0 9.37257 0.706084 11.2655 2.13857 12.6912C2.23765 12.7897 2.33968 12.8857 2.44467 12.9793C2.58342 13.1022 2.72735 13.2202 2.87628 13.3333C2.74312 13.4342 2.61403 13.5392 2.48902 13.6483C2.36837 13.7541 2.25148 13.8631 2.13857 13.9754C0.706084 15.4012 0 17.2942 0 19.1667C0 21.0392 0.706084 22.9322 2.13857 24.3578C2.35493 24.5735 2.58555 24.7753 2.83 24.9642C1.83757 25.7543 1.05885 26.7847 0.570883 27.963C0.00324965 29.3335 -0.145266 30.8415 0.14415 32.2965C0.43355 33.7517 1.14777 35.0878 2.19665 36.1368C3.24565 37.1858 4.58202 37.8995 6.03678 38.1893C7.49167 38.479 8.99963 38.33 10.3702 37.762C11.7407 37.1948 12.9118 36.2337 13.736 35C14.5602 33.7672 15 32.3168 15 30.8333V25.4037C16.1917 26.2012 17.625 26.6667 19.1667 26.6667C23.3088 26.6667 26.6667 23.309 26.6667 19.1667C26.6667 16.7903 25.5615 14.672 23.8368 13.2975C24.0812 13.1087 24.3118 12.9069 24.5282 12.6912C25.9607 11.2655 26.6667 9.37257 26.6667 7.5C26.6667 5.62743 25.9607 3.73453 24.5282 2.30875C23.0803 0.867517 20.9917 0 18.4087 0H8.25805ZM11.6667 15H8.25805C6.44683 15 5.23987 15.5908 4.49045 16.337C3.72578 17.0988 3.33333 18.1225 3.33333 19.1667C3.33333 20.2108 3.72578 21.2345 4.49045 21.9963C5.23987 22.7425 6.44693 23.3333 8.25805 23.3333H11.6667V15ZM5.19928 27.3902C5.88023 26.9352 6.6809 26.6667 7.5 26.6667C7.5 26.6667 8.13612 26.6667 8.25805 26.6667H11.6667V30.8333C11.6667 31.652 11.3985 32.4528 10.9433 33.134C10.4883 33.8152 9.84152 34.3457 9.08478 34.659C8.32805 34.9732 7.49542 35.0545 6.6921 34.895C5.88877 34.7355 5.15087 34.3408 4.57163 33.7613C3.99252 33.1828 3.59812 32.4447 3.43832 31.6415C3.2785 30.8382 3.3605 30.0048 3.67402 29.2488C3.98743 28.492 4.51823 27.845 5.19928 27.3902ZM15 11.6667H18.4087C20.2197 11.6667 21.4268 11.0758 22.1762 10.3296C22.9408 9.56787 23.3333 8.5441 23.3333 7.5C23.3333 6.4559 22.9408 5.43213 22.1762 4.67042C21.4268 3.92415 20.2198 3.33333 18.4087 3.33333H15V11.6667ZM11.6667 11.6667H8.25805C6.44693 11.6667 5.23987 11.0758 4.49045 10.3296C3.72578 9.56787 3.33333 8.5441 3.33333 7.5C3.33333 6.4559 3.72578 5.43213 4.49045 4.67042C5.23987 3.92415 6.44683 3.33333 8.25805 3.33333H11.6667V11.6667ZM19.1667 23.3082C16.8795 23.3082 15.0255 21.4535 15.0255 19.1667C15.0255 16.8798 16.8795 15.0252 19.1667 15.0252C21.4538 15.0252 23.3078 16.8798 23.3078 19.1667C23.3078 21.4535 21.4538 23.3082 19.1667 23.3082Z" fill="white"/>
</svg>
