<svg width="40" height="44" viewBox="0 0 40 44" fill="none" xmlns="http://www.w3.org/2000/svg">
<path fill-rule="evenodd" clip-rule="evenodd" d="M40 11.6667L20 0L0 11.6667V31.8956L3.09643 33.7017L9.42351 31.1417C11.1668 30.4365 12.3078 28.7439 12.3078 26.8633V11.0119H15.3847V26.8633C15.3847 29.9977 13.4831 32.8183 10.5776 33.994L6.45618 35.6617L20 43.562L40 31.8956V11.6667ZM18.4615 17.1657C18.4615 13.767 21.2167 11.0119 24.6154 11.0119H28.2052C31.3206 11.0119 33.8462 13.5374 33.8462 16.6529V17.1657H30.7692V16.6529C30.7692 15.2368 29.6212 14.0888 28.2052 14.0888H24.6154C22.9161 14.0888 21.5385 15.4664 21.5385 17.1657C21.5385 18.865 22.9161 20.2426 24.6154 20.2426H27.6923C31.0911 20.2426 33.8462 22.9978 33.8462 26.3965C33.8462 29.7953 31.0911 32.5503 27.6923 32.5503H24.6154C21.2167 32.5503 18.4615 29.7953 18.4615 26.3965H21.5385C21.5385 28.0958 22.9161 29.4734 24.6154 29.4734H27.6923C29.3917 29.4734 30.7692 28.0958 30.7692 26.3965C30.7692 24.6972 29.3917 23.3196 27.6923 23.3196H24.6154C21.2167 23.3196 18.4615 20.5644 18.4615 17.1657Z" fill="white"/>
</svg>
