<svg width="40" height="40" viewBox="0 0 40 40" fill="none" xmlns="http://www.w3.org/2000/svg">
<path id="Vector" fill-rule="evenodd" clip-rule="evenodd" d="M0 0H40V40H0V0ZM26.6667 16C23.7211 16 21.3333 18.3878 21.3333 21.3333C21.3333 24.2789 23.7211 26.6667 26.6667 26.6667H29.3333C30.8061 26.6667 32 27.8605 32 29.3333C32 30.8061 30.8061 32 29.3333 32H26.6667C25.1939 32 24 30.8061 24 29.3333H21.3333C21.3333 32.2789 23.7211 34.6667 26.6667 34.6667H29.3333C32.2789 34.6667 34.6667 32.2789 34.6667 29.3333C34.6667 26.3878 32.2789 24 29.3333 24H26.6667C25.1939 24 24 22.8061 24 21.3333C24 19.8606 25.1939 18.6667 26.6667 18.6667H29.7779C31.0051 18.6667 32 19.6616 32 20.8889V21.3333H34.6667V20.8889C34.6667 18.1888 32.4779 16 29.7779 16H26.6667ZM8 16H21.3333V18.6667H16V34.6667H13.3333V18.6667H8V16Z" fill="white"/>
</svg>
